<?xml version="1.0" encoding="utf-8"?>
<!-- Generator: Adobe Illustrator 27.8.1, SVG Export Plug-In . SVG Version: 6.00 Build 0)  -->
<svg version="1.1" id="Layer_3" xmlns="http://www.w3.org/2000/svg" xmlns:xlink="http://www.w3.org/1999/xlink" x="0px" y="0px"
	 viewBox="0 0 428 116.5" style="enable-background:new 0 0 428 116.5;" xml:space="preserve">
<style type="text/css">
	.st0{fill:#A9B533;}
</style>
<path class="st0" d="M169.9,83c-5.8,0-5.8-4.4-5.8-5.8V66.7h1.9v10.7c0,2.4,1.1,4,4.4,4c2.5,0,3.7-2.4,3.7-4.6V66.7h1.9v10.2
	C176.1,78.9,175.3,83,169.9,83z M186.4,82.7h-1.9v-16h1.7l8.1,11.6c0.3,0.5,0.6,1.2,0.6,1.2V66.7h1.9v16h-1.7l-8-11.3
	c-0.3-0.4-0.7-1.3-0.7-1.3L186.4,82.7L186.4,82.7z M207.1,82.7h-1.9v-16h1.9V82.7z M216.5,66.7l4.5,12.6c0.1,0.2,0.2,0.7,0.2,0.7
	c0-0.2,0.1-0.5,0.2-0.8l4.5-12.6h2.1l-5.9,16h-2l-5.9-16h2.3V66.7z M235.1,66.7h9.7v1.7H237v4.9h6.3V75H237v6h8l0.3,1.7h-10.2
	L235.1,66.7L235.1,66.7z M257.2,68.4h-2.6v14.3h-1.9v-16h4.8c4.2,0,5.4,1.7,5.4,4.7c0,2-0.9,3.8-3.3,4.7l4.2,6.6h-2.2l-4.8-7.7
	c3.3,0,4.2-1.8,4.2-3.5C261,69.6,260.3,68.4,257.2,68.4z M270.7,79.8c1,0.7,2.5,1.6,5,1.6s3.5-1.3,3.5-2.9c0-1.6-1.2-2.2-3.7-3.2
	c-2.9-1.2-4.7-2.1-4.7-4.5c0-2.7,1.7-4.5,5.2-4.5c2.4,0,4.1,1,4.7,1.5l-0.8,1.4c-0.6-0.6-1.9-1.4-3.9-1.4c-2.5,0-3.3,1.3-3.3,2.8
	c0,1.2,1.5,2.1,3.9,3c2.5,1,4.4,2,4.4,4.7c0,2.9-1.8,4.5-5.4,4.5c-2.9,0-4.6-0.9-5.7-1.6L270.7,79.8z M290.6,82.7h-1.9v-16h1.9V82.7
	z M308.7,68.4h-4.4v14.3h-1.9V68.4H298v-1.7h10.7V68.4z M328.2,66.7l-5.6,9.5v6.5h-1.9v-6.5l-5.6-9.5h2.2l4.4,7.6l4.4-7.6H328.2z
	 M352.5,83c-5.7,0-6.7-3.8-6.7-8.3c0-4.6,1.7-8.3,7.1-8.3c5.7,0,6.7,3.4,6.7,8.3C359.6,79.4,357.9,83,352.5,83z M352.5,68.1
	c-2.9,0-4.8,2.1-4.8,6.8c0,4.8,1.9,6.5,5.3,6.5c2.5,0,4.6-2.1,4.6-6.8C357.6,70,355.9,68.1,352.5,68.1z M367.4,66.7h9.7v1.7h-7.8
	v4.9h6.3V75h-6.3v7.7h-1.9L367.4,66.7L367.4,66.7z M166.2,112.1l-1.5,4.4h-2.1l6-16h2l5.7,16h-2.2l-1.5-4.4H166.2z M172,110.4
	l-2.3-6.7c-0.2-0.6-0.3-1.4-0.3-1.4s0,0.7-0.3,1.4l-2.4,6.7H172z M188,102.2h-2.7v14.3h-1.9v-16h4.9c4.2,0,5.4,1.7,5.4,4.7
	c0,2.8-1.7,5.2-6.6,5.2H187v-1.7h0.2c3.7,0,4.5-1.8,4.5-3.5C191.8,103.4,191.1,102.2,188,102.2z M205.9,102.2h-2.7v14.3h-1.9v-16
	h4.9c4.2,0,5.4,1.7,5.4,4.7c0,2.8-1.7,5.2-6.6,5.2h-0.1v-1.7h0.2c3.7,0,4.5-1.8,4.5-3.5C209.7,103.4,209,102.2,205.9,102.2z
	 M221.1,114.8h7.1l0.2,1.7h-9.2v-16h1.9L221.1,114.8L221.1,114.8z M237.6,116.5h-1.9v-16h1.9V116.5z M246,100.5h9.7v1.7H248v4.9h6.3
	v1.7H248v6h8l0.3,1.7H246V100.5z M263.6,100.5h5.2c5.7,0,6.8,3.1,6.8,8c0,4.7-1.8,8-7.2,8h-4.8V100.5z M265.5,114.8h3.4
	c2.5,0,4.8-1.7,4.8-6.4c0-4.6-1.7-6.1-5.1-6.1h-3L265.5,114.8L265.5,114.8z M294.3,113.6c1,0.7,2.5,1.6,5,1.6s3.5-1.3,3.5-2.9
	c0-1.6-1.2-2.2-3.7-3.2c-2.9-1.2-4.7-2.1-4.7-4.5c0-2.7,1.7-4.5,5.2-4.5c2.4,0,4.1,1,4.7,1.5l-0.8,1.4c-0.6-0.6-1.9-1.4-3.9-1.4
	c-2.5,0-3.3,1.3-3.3,2.8c0,1.2,1.5,2.1,3.9,3c2.5,1,4.4,2,4.4,4.7c0,2.9-1.8,4.5-5.4,4.5c-2.9,0-4.6-0.9-5.7-1.6L294.3,113.6z
	 M322.1,102.9c-0.8-0.6-1.7-1-3.4-1c-3.1,0-5,2.1-5,6.8c0,4.8,1.9,6.5,4.8,6.5c1.6,0,3-0.7,4-1.7l1.1,1.3c-1.1,1.1-2.6,2-5.3,2
	c-5.8,0-6.6-3.8-6.6-8.3c0-4.6,1.6-8.3,7.3-8.3c1.9,0,3.2,0.6,4.1,1.2L322.1,102.9z M332.9,116.5H331v-16h1.9V116.5z M341.3,100.5
	h9.7v1.7h-7.8v4.9h6.3v1.7h-6.3v6h8l0.3,1.7h-10.2V100.5z M360.9,116.5H359v-16h1.7l8.1,11.6c0.3,0.5,0.6,1.2,0.6,1.2v-12.8h1.9v16
	h-1.7l-8-11.3c-0.3-0.4-0.7-1.3-0.7-1.3V116.5z M389.3,102.9c-0.8-0.6-1.7-1-3.4-1c-3.1,0-5,2.1-5,6.8c0,4.8,1.9,6.5,4.8,6.5
	c1.6,0,3-0.7,4-1.7l1.1,1.3c-1.1,1.1-2.6,2-5.3,2c-5.8,0-6.6-3.8-6.6-8.3c0-4.6,1.6-8.3,7.3-8.3c1.9,0,3.2,0.6,4.1,1.2L389.3,102.9z
	 M398.1,100.5h9.7v1.7H400v4.9h6.3v1.7H400v6h8l0.3,1.7h-10.2V100.5z M415.7,113.6c1,0.7,2.5,1.6,5,1.6s3.5-1.3,3.5-2.9
	c0-1.6-1.2-2.2-3.7-3.2c-2.9-1.2-4.7-2.1-4.7-4.5c0-2.7,1.7-4.5,5.2-4.5c2.4,0,4.1,1,4.7,1.5l-0.8,1.4c-0.6-0.6-1.9-1.4-3.9-1.4
	c-2.5,0-3.3,1.3-3.3,2.8c0,1.2,1.5,2.1,3.9,3c2.5,1,4.4,2,4.4,4.7c0,2.9-1.8,4.5-5.4,4.5c-2.9,0-4.6-0.9-5.7-1.6L415.7,113.6z
	 M124.2,48.7h-11V2.1h11v18h16.4v-18h11v46.6h-11V29h-16.4V48.7z M250.5,12.9c-2.7-2-5.8-3.6-11.4-3.6c-6.3,0-10.3,5.8-10.3,16.7
	c0,11.1,4.2,15.5,11.8,15.5c2.9,0,5.2-1.5,6.8-3v-7.8h-11.7v-8.1h22.8v18.3c-3,3.8-8.2,8.8-19.4,8.8c-18.5,0-21.4-11.3-21.4-24.4
	c0-13.3,5.3-24.4,22.5-24.4c7.1,0,12,2.5,15.5,4.7L250.5,12.9z M292.7,49.5c-18.8,0-18.8-13.2-18.8-17.6V2.1h11v30.4
	c0,4.9,2.2,8.3,9.3,8.3c5,0,7.5-5.1,7.5-9.9V2.1h11v29.2C312.7,37.2,310.2,49.5,292.7,49.5z M330.2,2.1h32.7v8.3h-21.5v9.5h17.4V28
	h-17.4v12.4h21.7l1.2,8.3h-34.1L330.2,2.1L330.2,2.1z M162.3,48.8h12l16.4-47h-10L162.3,48.8z M190.5,31.1h-4.8l-3,8.6H193l3.1,9.1
	h12.6L193.5,9.1l-5.3,15.1L190.5,31.1z M68.9,2.1h18.8v4.8H75.3v5.4h10v4.6h-10V24h12.5l0.7,4.8H68.9C68.9,28.8,68.9,2.1,68.9,2.1z
	 M25.7,6.9h-7v22h-6.3v-22h-7V2.1h20.3V6.9z M41.4,28.9h-6.3V2.1h6.3v10.4h9.4V2.1h6.3v26.8h-6.3V17.6h-9.4V28.9z"/>
</svg>
