<?xml version="1.0" encoding="utf-8"?>
<!-- Generator: Adobe Illustrator 27.8.1, SVG Export Plug-In . SVG Version: 6.00 Build 0)  -->
<svg version="1.1" id="Laag_1" xmlns="http://www.w3.org/2000/svg" xmlns:xlink="http://www.w3.org/1999/xlink" x="0px" y="0px"
	 viewBox="0 0 54.2 63" style="enable-background:new 0 0 54.2 63;" xml:space="preserve">
<style type="text/css">
	.st0{fill:#FFFFFF;}
	.st1{fill:#033572;}
</style>
<g>
	<g>
		<g>
			<path class="st0" d="M27.1,0.4c-14.7,0-26.7,14-26.7,31.1s12,31.1,26.7,31.1s26.7-14,26.7-31.1S41.8,0.4,27.1,0.4z"/>
			<path class="st1" d="M12,16.8c0.3-0.1,0.7-0.1,1-0.2v2.2c0,0.3,0,0.3,0.3,0.3v0.2H12V19c0.3,0,0.3,0,0.3-0.3v-1.6
				c0-0.2,0-0.2-0.2-0.2h-0.2v-0.1H12z M38.6,16.6c0,0.2-0.1,0.4-0.1,0.8h0.2c0.1-0.2,0.1-0.3,0.4-0.3H40c-0.4,0.7-0.8,1.4-1.3,2.1
				v0.1l0.6-0.1c0.4-0.8,0.7-1.7,1.1-2.6v-0.1L38.6,16.6L38.6,16.6z M40.9,16.6L40.7,18c0.1,0,0.2-0.1,0.4-0.1
				c0.3,0,0.6,0.2,0.6,0.6c0,0.3-0.1,0.5-0.3,0.5s-0.4-0.2-0.5-0.3c0,0-0.1,0-0.2,0c-0.1,0.1-0.1,0.1-0.2,0.2c0,0.1,0,0.1,0.1,0.2
				c0.1,0.1,0.3,0.2,0.6,0.2c0.2,0,0.5-0.1,0.7-0.3c0.3-0.2,0.4-0.5,0.4-0.8s-0.3-0.7-0.9-0.7c-0.2,0-0.3,0.1-0.5,0.1L41,17h1.1
				l0.1-0.5L40.9,16.6L40.9,16.6z M14,16.6L13.9,18c0.1,0,0.2-0.1,0.4-0.1c0.3,0,0.6,0.2,0.6,0.6c0,0.3-0.1,0.5-0.3,0.5
				s-0.4-0.2-0.5-0.3c0,0-0.1,0-0.2,0c-0.1,0.1-0.1,0.1-0.2,0.2c0,0.1,0,0.1,0.1,0.2c0.1,0.1,0.3,0.2,0.6,0.2c0.2,0,0.5-0.1,0.7-0.3
				c0.3-0.2,0.4-0.5,0.4-0.8s-0.3-0.7-0.9-0.7c-0.2,0-0.3,0.1-0.5,0.1l0.1-0.6h1.1l0.1-0.5L14,16.6L14,16.6z M53.8,31.5
				c0,17.1-12,31.1-26.7,31.1S0.4,48.6,0.4,31.5s12-31.1,26.7-31.1S53.8,14.4,53.8,31.5z M54.2,31.5C54.2,14.1,42.1,0,27.1,0
				C12.2,0,0,14.1,0,31.5S12.2,63,27.1,63C42.1,63,54.2,48.9,54.2,31.5z M26.2,12.5c0.1,0.1,0.3,0.2,0.4,0.2
				c0.2-0.1,0.4-0.3,0.4-0.3c-0.1,0-0.2,0-0.3,0s-0.1,0.1-0.2,0.1C26.3,12.4,26.3,12.4,26.2,12.5 M26.3,11.9c-0.1,0-0.2,0.1-0.1,0.2
				c0.1,0,0.1-0.1,0.2,0c0,0,0.1,0,0.2,0c0.1,0,0.1-0.1,0.2,0c0.1,0,0.1-0.1,0-0.1s-0.1,0-0.2,0c-0.1,0.1-0.1,0-0.1,0
				C26.3,11.9,26.3,11.9,26.3,11.9 M26.7,11.1L26.7,11.1L26.7,11.1L26.7,11.1z M27.4,10.7c-0.3,0-0.8,0.2-0.8,0.2V11h0.1l0,0
				c0,0,0,0,0,0.1s0.1,0.2,0.2,0.2c0.1,0,0.2-0.1,0.2-0.2c0-0.1,0-0.1-0.1-0.1c0.1,0,0.2-0.1,0.4-0.1c0.1,0,0.1,0,0.1-0.1
				C27.5,10.7,27.5,10.7,27.4,10.7 M26.2,10.7c0.5-0.3,0.9-0.5,1.6-0.5c0.6,0,0.7,0.4,0.7,0.4c0.2-0.2,0.1-0.8-0.6-0.8
				C26.9,9.9,26.4,10.4,26.2,10.7 M27,25.9c-1.2-0.1-1.3-0.9-1.3-1.3c0-0.3,0.3-0.2-0.2-0.4c-1-0.5-1.7-0.1-1.7-0.1l0.1,0.1
				c0.8,0,1.1,0.3,1.1,0.3c-0.1,2.1,1.3,2,1.3,2c0.2,0.4,0.6,0.5,0.9,0.6c0.1,0,0.3-0.1,0.4-0.1C27.1,26.6,27,25.9,27,25.9
				 M30.5,26.2l0.6-0.2c0.1-0.3,0.3-0.4,0.4-0.5c0.1,0,0.1-0.1,0.2-0.2c0-0.3,0-0.4-0.2-0.7c-0.7-0.9-0.7-1.7-0.8-1.8
				c0-0.1-0.1,0-0.1,0s0.4,1.8-0.3,1.9c0,0,0.1,0.9-0.8,1.1c-0.1,0-0.2,0.1-0.2,0.2c0,0.2-0.1,0.4-0.2,0.5
				C29.6,26.4,30.1,26.3,30.5,26.2C30.5,26.3,30.5,26.3,30.5,26.2 M30.6,22c0.1,0,0.3-0.1,0.7-0.1s0.5,0.3,0.5,0.3l0.1,0.4
				c0,0,0.4,0.2,0.5,0s0.1-0.3-0.1-0.5c-0.3-0.3-0.4-0.4-0.9-0.4C30.9,21.6,30.5,21.9,30.6,22L30.6,22 M21.4,19.4
				c-0.5,0.3-0.7,1.1-0.6,2.1c0.1,1.4,0.8,1.6,1.3,0.8c0.5-0.6,0.7-1.2,0.5-1.2c-0.3,0.1-0.9,0.1-1.1-0.2c-0.4-0.5-0.1-1.1,0-1.5
				L21.4,19.4 M30,42.6c-0.6-0.5-1.3-1.1-1.9-2c-1.4-2.3-1.6-4.1-1.6-9.3c0-0.2,0-0.4,0-0.6l-0.8-0.1c0,0-0.2,5.4-0.2,6
				c0,0.8,0.2,1.6,0.4,0c0.1-0.8-0.1-3.2,0.1-3.2c0.3,0,0.3,9.2,0,9.2c-0.6,0-0.8-0.2-1.7-0.1c-0.3-0.4-1.2-0.4-1.3-0.3
				c0,0,0.3,0.2,0.6,0.3L14,45.2l-0.6-0.4l-4,1.7l4.4-0.4l0.2-0.7l9.9-2.6c0.4,0.2,0.9,0.4,0.9,0.4c0.1,0.1,1.4-0.1,1.3,0.4
				c0,0.3-0.4,0.5-0.7,0.6s-0.8,0-0.8,0.1s0.9,0.2,1.1,0.1c0.3-0.1,1.2-0.4,1.9-1.1C27.6,43.3,29.7,43.1,30,42.6
				C30.1,42.7,30.1,42.7,30,42.6 M13.6,45.7L11,46.1l2.8-0.8L13.6,45.7z M14.3,28.7c0,0,1.3,0.2,1.3-0.5c0-0.3-0.2-0.4-0.3-0.4
				c-0.2,0-0.3,0.2-0.2,0.4C15.3,28.3,15.4,28.5,14.3,28.7 M13.3,28.1c0,0.1,0.1,0.2,0.1,0.2c0.1,0,0.1-0.1,0.1-0.2V28h0.1
				c0,0,0.1,0,0.1-0.1c0,0,0-0.1-0.1-0.1h-0.5c0,0-0.1,0-0.1,0.1c0,0,0,0,0.1,0h0.2C13.3,28,13.3,28,13.3,28.1 M17.1,33
				c0.2-0.3,0.8-0.3,1,0.1c0,0-0.5,0-0.6,0.1c0,0,0.6,0.2,0.5,0.6c0,0-0.2-0.3-0.5-0.3c0,0,0.2,0.6-0.2,0.7c0,0-0.1-0.5-0.4-0.5
				c-0.3,0-0.3,0.3-0.3,0.4c0,0-0.2-0.1-0.2-0.5c0-0.2-0.1-0.3-0.2-0.3c-0.1,0-0.9-0.2-1.8-1.1c0,0-0.6,0.3-1.4,0.4
				c0,0-0.2,0.2,0.1,0.2c0.2,0,1.2,0,1.8,1c0.1,0.2,0.3,0.3,0.8,0.3c0,0,0,0.6-1,0.6c0,0,0.6,0.4,1,0.8c0.2,0.1,0.2,0.1,0.4,0
				c0.1-0.1,0.8-0.6,1.1,0.1c0,0-0.4-0.1-0.6,0c0,0,0.4,0.4,0.3,0.8c0,0-0.3-0.4-0.5-0.3c-0.1,0,0.2,0.4-0.2,0.6c0,0,0-0.5-0.4-0.5
				c0,0,0.1,0.3-0.3,0.4c0,0,0.2-0.6-0.2-0.8c-0.1,0-2-0.3-2.3-1.1c0,0,0.3-0.2,0.5-0.2c0,0-1.1-0.8-1.3-1.4c0,0-0.2-0.1-0.1,0.1
				c0.1,0.1,0.3,0.3,0.2,1.4c0,0.3,0.1,0.6,0.4,0.8c0,0-0.7,0.3-1.3-0.5c0,0,0,1.5,0.8,1.6c0.3,0,1,0,1,0.9c0,0-0.3-0.4-0.6-0.3
				c0,0,0.2,0.3,0.1,0.5c0,0-0.3-0.4-0.5-0.3c0,0,0.1,0.3,0,0.5c0,0-0.3-0.6-0.4-0.6c-0.2,0-0.3,0.3-0.3,0.6c0,0-0.5-0.1-0.2-0.5
				c0.1-0.2,0.2-0.2,0.3-0.3s-2.2-0.9-1.9-2.6c0,0,0.4,0.3,0.6,0.1s0.1-0.7-0.4-1.1c0,0,0.4-0.2,0.6-0.2c0.1,0,0.1-0.2,0.1-0.4
				c-0.2,0-0.7,0-1-0.3c-0.2-0.2-0.3-0.5-0.2-1c0.1-0.4,0.5-1,0.8-1.4c0.1-0.1,0.2-0.3,0.3-0.4c0.2-0.3,0.4-0.8,0.3-1.1
				c-0.1-0.1-0.2-0.2-0.4-0.2c-0.1,0-0.2,0-0.2,0c0.2,0.4-0.1,0.8-0.5,1.1c-0.6,0.4-0.5,0.9-0.5,0.9s-0.2-1-0.1-1.7
				c0.1-0.5,0.6-1.1,1-0.6c0,0,0.2,0,0.3,0c0.4,0,0.6,0.2,0.7,0.4c0.3,0.6-0.2,1.4-0.3,1.5c-0.1,0.1-0.2,0.2-0.3,0.4
				c-0.3,0.4-0.7,1-0.8,1.3c-0.1,0.3-0.1,0.5,0.1,0.6c0.3,0.2,0.7,0.2,0.8,0.2c0,0,0.9-0.8,1.6-1c0.3-0.1,0.3-0.4,0.1-0.3
				c-0.2,0-1,0.2-1.3-0.3c0,0,0.9-0.3,1-0.8c0,0-0.4,0.3-0.9,0.1c0,0,0.8-0.6,0.6-1.1c-0.1-0.2-0.2-0.8,0-0.9
				c0.1-0.1-0.2-0.3-0.3-0.3c0,0,0.4-0.4,0.7,0h0.2c0.2,0,0.4-0.2,0.6-0.2c0.2,0,0.4-0.1,0.6,0.2c0,0,0.2,0.1,0.4,0.2
				c0.1,0,0.1,0.2,0.1,0.4c0,0.1-0.1,0.1-0.6,0.2c-0.1,0-0.4,0.6-0.3,0.6c0.1,0,0.6-0.2,0.8-0.2c0.1,0,0.1,0.2,0.1,0.4
				c-0.1,0.1-0.2,0-0.4,0s-0.4,0.3-0.1,0.6c0.2,0.2,0.9,0.4,1.4-0.7c0,0,0.2,0.2,0.1,0.8l1.5-1.2c0,0-0.1-0.8,0.5-1.1
				c0,0-0.2,0.3-0.1,0.5c0,0,0.4-0.3,0.6-0.3c0,0-0.4,0.5-0.4,0.6c0,0,0.6-0.2,0.7,0c0,0-0.6,0.3-0.6,0.4c0,0.1,0.4,0.2,0.6,0.1
				c0,0-0.1,0.4-0.8,0.3c0,0-0.6,0.9-1.5,1.5c-0.2,0.2,0,0.5,0.6,0.3c0.2-0.1,0.4-0.2,0.4-0.3c0,0,0.5,1-1.1,1.1
				c0,0,0.9,0.9,1.1,1.2C17,33.3,17.1,33.1,17.1,33 M43.7,37.6c0,0.1,0,0.2-0.1,0.2s-0.1,0-0.2,0.1s-0.1,0.1,0,0.1
				c0.2,0,0.4-0.3,0.4-0.4c0-0.1,0.2-0.2,0.3-0.2c0.1,0,0-0.2,0-0.2h-0.2c0-0.2,0-0.3-0.1-0.3c0.2,0,0.6,0,0.8-0.2
				c0-0.1,0.2-0.2,0.2-0.2l-0.1-0.2c-0.1-0.1-0.5-0.1-0.7,0c-0.4,0.1-0.6,0-0.6-0.1v-0.1c0.1,0.1,0.3,0,0.3,0c0.1-0.1,0.1-0.2,0-0.2
				c-0.3-0.1-0.4,0.1-0.4,0.1c-0.1,0.2-0.1,0.3,0,0.3c0.1,0.1,0.5,0.2,0.8,0.1c0.2-0.1,0.5,0,0.6,0c0,0,0,0.1,0,0.2l-0.1,0.1
				c-0.1,0.2-0.6,0.2-0.9,0.2c-0.3-0.1-0.6,0.1-0.7,0.2c-0.2,0.1-0.3,0.2-0.4,0.1c-0.2-0.1,0.2-0.5,0.2-0.5c0.1-0.1,0-0.1-0.1-0.1
				c-0.4,0.1-0.4-0.1-0.4-0.2c-0.1-0.1-0.1,0-0.1,0c-0.1,0.1,0.1,0.5-0.2,0.6c-0.6,0.1-0.8-0.4-0.8-0.4h-0.1
				c0.1,0.3,0.3,0.4,0.4,0.5c0.2,0.1,0.2,0.1,0.2,0.2l0.1,0.1l-0.1,0.3c0,0.1-0.4,0.4-0.4,0.4c-0.1,0-0.4,0.1-0.3,0.1
				c0.1,0.2,0.5,0,0.5,0c0-0.1,0.6-0.6,0.7-0.6c0,0,0.6-0.2,0.8-0.2c0.2-0.1,0.1,0,0.1,0C43,37.5,42.8,38,42.8,38
				c-0.2,0-0.4,0.2-0.3,0.2c0.2,0.1,0.4-0.1,0.4-0.1c0-0.1,0.2-0.3,0.2-0.3l0.3-0.6l0.2-0.1c0,0,0.1,0.2,0.2,0.3
				C43.8,37.5,43.7,37.6,43.7,37.6 M43.9,27.7l0.2-0.4l-0.5,0.2v-0.4l-0.3,0.3L43,27.2v0.4L43.9,27.7z M37.5,27.9
				c-0.5-0.1-0.5-0.2-0.4-0.3s0-0.2-0.1-0.2s-0.2,0-0.2,0.2C36.8,28,37.5,27.9,37.5,27.9 M36.5,26.8h-0.2v0.5h0.2V26.8z M39.5,26.8
				h-0.2v0.5h0.2V26.8z M35.9,28.9h-0.2v0.5h0.2V28.9z M35.7,31.5h-0.2V32h0.2V31.5z M37.5,32.1h-0.2v0.5h0.2V32.1z M31.4,32.6
				c0-0.1,0-0.4-0.2-0.4s-0.4,0-0.5,1.1c0,0,0.4-0.1,0.6,0C31.3,33.3,31.3,32.9,31.4,32.6 M31.8,28c-0.2,0-0.4,0.2-0.5,0.6
				c-0.1,0.4-0.1,0.7-0.1,0.9c0.1,0,0.1,0,0.2,0c0.1-0.2,0.2-0.7,0.6-1c0,0,0,0,0-0.1C32,28.1,31.9,28,31.8,28 M30.6,29.5
				c0,0,0.1,0,0.2,0c0-0.2,0-0.6-0.1-1S30.4,28,30.3,28c-0.2,0-0.3,0-0.5,0.3C30.2,28.7,30.4,29.2,30.6,29.5
				C30.5,29.5,30.6,29.5,30.6,29.5 M33.5,31.5c0-0.4,0-0.8,0-1.2c-0.1,0.2-0.1,0.4-0.2,0.6C33.3,31,33.4,31.2,33.5,31.5 M31.3,35.8
				C31.4,35.8,31.4,35.9,31.3,35.8c0.1,0.2,0.2,0.2,0.2,0.3c0.2,0.6,0,1.7,0,1.7c0.4-0.8,0.5-1.4,0.3-1.9c0-0.1-0.1-0.2-0.2-0.4
				C31.6,35.4,31.2,35.8,31.3,35.8 M32,30.9c0.1-0.2,0.2-0.5-0.2-1v-0.2c0,0,0.1-0.7,0.7-1.1c0.1-0.1,0.3-0.1,0.4,0
				c0.2,0.2,0.2,0.6,0.1,1.1c0-0.1-0.1-0.3-0.1-0.4c-0.1-0.2-0.3-0.3-0.5-0.2s-0.3,0.3-0.2,0.5c0.2,0.4,0.4,1,0.7,2.2l0.1,0.4
				c0.2,1-0.1,1.8-0.6,3.1c-0.3,1.1-0.8,3.3-0.6,4.4c0.3-1.9,0.8-3.9,1.1-4.5c0.1-0.2,0.2-0.6,0.4-0.9c-0.1,2.1-0.3,4.3-0.9,6.4
				c-0.2,0.8-0.6,1.4-0.9,1.8c-0.3,0.4-0.5,0.6-0.5,0.6l0,0l0,0c0,0,0,0-0.1,0l0,0c-0.3-0.2-1.1-0.7-1.9-1.6c-0.3-0.3-0.5-0.6-0.7-1
				c-1-1.7-1.3-3-1.4-5.9c0-0.6,0-1.3,0-2.2c0-0.3,0-0.6,0-0.8c0-2.5,0.2-3.8,0.2-3.8s0.5-0.2,1.8-0.5c0.6-0.1,1.4-0.2,2.2-0.2
				c0,0,0,0.1,0,0.2c0.1,0.1,0.2,0.2,0.3,0.2c-0.2,0.1-0.4,0.3-0.5,0.5c-0.1-0.3-0.3-0.5-0.6-0.6c-0.4-0.1-0.8,0-1.1,0.6
				c-0.4-0.1-0.8-0.1-1.1,0.1c-0.5,0.4-0.6,1.5,0.2,3c-0.1,0.2-0.1,0.4-0.2,0.6c-0.6,2.1,0.3,3.3,0.9,4.4c0.4,0.9,1.2,3.6,1.3,3.8
				c0.1-0.4-0.2-3-0.8-4.2c-0.4-0.9-1.3-2.2-0.8-3.8c0.2-0.6,0.5-1.4,0.7-2.1c0-0.4-0.5-0.9-0.7-0.4c0,0.2-0.1,0.4-0.2,0.7
				c-0.3-0.8-0.4-1.4-0.1-1.6c0.2-0.1,0.5-0.1,0.7,0c0.4,0.2,0.6,0.8,0.7,1.1l0,0c0.1,0.3,0.1,0.6,0,0.9c-0.1,0.5-0.4,0.7,0,1
				c0.2,0.2,0.5,0.3,0.5,0.3s-1,2.2,0.5,2.4c0.3,0.1,0.7-0.1,0.7-0.3s-0.1-0.5,0.2-1.1c0.1-0.2,0.4-0.8,0.3-1.1
				c0-0.1-0.1-0.4-0.1-0.6 M30.9,36c0.1-0.2,0.5-0.7,0.5-0.7c0.5-0.5,0.9-0.7,1.1-1.3c0.2-0.6,0.2-0.6,0.3-1.3
				c0.2-0.7-0.3-1.4-0.4-0.8c-0.2,0.6-0.2,1.4-0.4,1.9c-0.2,0.6-0.5,0.8-0.8,1.1c-0.1,0.1-0.1,0.1-0.1,0.2L31,35
				c-0.9-0.4-1.3-0.6-1.4-1.4c-0.2-0.9,0.1-1.1-0.3-2c-0.1-0.2-0.2,0.1-0.3,0.4c0,0.1,0,0.3,0,0.5c0.1,0.5-0.1,1,0.1,1.7
				c0.3,0.8,0.8,1,1.7,1.4c-0.2,0.2-0.3,0.5-0.3,0.8c-0.1,0.6,0.2,1.3,0.4,1.7C30.7,37.5,30.6,36.5,30.9,36 M33.3,28.3
				C33.3,28.3,33.3,28.4,33.3,28.3c0,0,0-0.1,0-0.2c0-0.3-0.2-0.5-0.6-0.7c-0.1,0.1-0.3,0.1-0.5,0.1c0.1,0.2,0.2,0.4,0.2,0.6
				C32.9,28.1,33.2,28.2,33.3,28.3 M30.8,31.2c0-0.1,0-0.2-0.1-0.2c0.1,0,0.2-0.1,0.2-0.1v-0.1h-0.1C30.6,31,30,31.1,30,31.1
				l-0.1,0.1c0,0,0,0.1,0.1,0.1c0,0,0.2,0,0.4-0.1v0.1c0,0.1,0.1,0.2,0.2,0.2C30.7,31.4,30.8,31.3,30.8,31.2 M32,30.9
				c-0.4-0.1-0.7-0.3-0.7-0.3h-0.1v0.1c0,0,0.1,0,0.2,0.1c-0.1,0-0.1,0.1-0.1,0.2c0,0.1,0.1,0.2,0.1,0.2c0.1,0,0.1-0.1,0.1-0.2
				c0-0.1,0-0.1,0-0.2C31.6,30.8,31.7,30.9,32,30.9 M31.2,32.2c-0.2,0-0.4,0-0.5,1.1c0,0,0.4-0.1,0.6,0c0,0,0-0.5,0.1-0.7
				C31.4,32.5,31.4,32.2,31.2,32.2 M31.1,31.8C31,31.8,31.1,31.8,31.1,31.8c-0.2,0-0.3,0.1-0.2,0.2c0.1,0.1,0.1-0.1,0.2,0
				c0,0,0.1,0,0.2,0c0.1,0,0.1,0,0.2,0c0.1,0,0.1-0.1,0-0.2c-0.1,0-0.1,0-0.2,0S31.2,31.8,31.1,31.8 M16.8,42.2L16.8,42.2L16.8,42.2
				L16.8,42.2 M10.2,42.2L10.2,42.2C10.3,42.2,10.3,42.2,10.2,42.2C10.3,42.2,10.2,42.2,10.2,42.2 M21.8,52.9c0,2.9,2.4,5.3,5.3,5.3
				c2.9,0,5.3-2.4,5.3-5.3v-7.3H21.8V52.9 M44.6,47.2c-3.4,5.4-8.5,9.2-14.3,10.2c-0.9,0.7-2,1-3.2,1s-2.3-0.4-3.2-1
				c-5.8-1-10.9-4.8-14.2-10.2h12v-1.6v-0.1h0.1h10.8h0.1v0.1v1.6H44.6 M30.7,53.2c0-0.2,0.1-0.7-0.4-0.8c-0.6-0.1-0.9,0.6-0.9,0.6
				c0,0.1-0.1,0.1-0.2,0.2c-0.1,0-0.8,0.1-0.8,0.7c0,0.5,0.5,0.6,0.7,0.6c0.3,0,0.5,0,0.8-0.1c0.1,0,0.3,0,0.4-0.1
				c0.1-0.1,0.1-0.3,0.2-0.4C30.5,53.7,30.6,53.5,30.7,53.2 M31.1,54.2c0.1,0,0.2,0.2,0.2,0.3c0,0.1-0.2,0.2-0.3,0.2
				c-0.2,0-0.3,0-0.5,0c0,0.1-0.1,0.3-0.1,0.5c0,0.1-0.1,0.2-0.3,0.2c-0.1,0-0.2-0.1-0.2-0.3c0-0.1,0-0.2,0-0.3l0,0
				c-0.3,0.1-0.6,0.2-1,0.1c-0.7-0.1-1.2-0.5-1.2-1.1s0.5-1,0.9-1.1L27,50.6l-1.7,2.2c0.4,0.1,0.9,0.5,0.9,1.1S25.8,55,25.1,55
				c-0.4,0-0.7-0.1-1-0.1l0,0c0,0.1,0,0.2,0,0.3c0,0.1-0.1,0.3-0.2,0.3c-0.1,0-0.3-0.1-0.3-0.2c0-0.2,0-0.3-0.1-0.5
				c-0.1,0-0.3,0-0.5,0c-0.1,0-0.3-0.1-0.3-0.2s0.1-0.3,0.2-0.3c0.1,0,0.2,0,0.3,0l0,0c-0.1-0.2-0.3-0.5-0.4-0.9
				c-0.1-0.7,0.2-1.3,0.8-1.4s1,0.2,1.2,0.6l1.8-2.3l-1-1.3l0,0l-1.8,1.4L23.5,50l0.9-0.7l-0.3-0.4l-0.9,0.7l-0.7-0.9l0.4-0.3
				l0.3,0.4l0.4-0.4L23.3,48l0.4-0.3l0.7,0.9l0.4-0.3L24.3,47l0.4-0.3l2.4,3l2.4-3l0.4,0.3l-0.7,0.9l0.4,0.3l0.7-0.9l0.4,0.3
				L30.4,48l0.4,0.4l0.3-0.4l0.4,0.3l-0.7,0.9L30,48.6L29.7,49l0.9,0.7l-0.3,0.4l-1.8-1.4l0,0l-1,1.3l1.8,2.3
				c0.2-0.4,0.7-0.7,1.2-0.6c0.6,0.1,0.9,0.7,0.8,1.4c-0.1,0.4-0.2,0.7-0.4,0.9l0,0C30.9,54.2,31,54.2,31.1,54.2 M25.7,53.9
				c0-0.6-0.8-0.7-0.8-0.7c-0.1,0-0.1-0.1-0.2-0.2c0,0-0.3-0.8-0.9-0.6c-0.5,0.1-0.4,0.6-0.4,0.8c0.1,0.3,0.2,0.5,0.3,0.7
				c0.1,0.1,0.1,0.3,0.2,0.4c0.1,0,0.3,0,0.4,0.1c0.3,0.1,0.5,0.1,0.8,0.1C25.3,54.5,25.8,54.4,25.7,53.9 M23.9,60.1
				C23.8,60,23.7,60,23.6,60c-0.2,0-0.6,0-0.7,0.6c-0.1,0.4,0.2,0.6,0.5,0.7c0.3,0,0.3,0,0.3-0.2L23.9,60.1z M24,59.4
				c0.1-0.5,0-0.5-0.4-0.6v-0.2l1.6,0.3v0.2c-0.4,0-0.4,0-0.5,0.5L24.4,61c-0.1,0.5,0,0.5,0.3,0.6v0.2l-1.6-0.3
				c-0.6-0.1-1-0.5-0.9-1s0.6-0.8,1.1-0.7c0.1,0,0.2,0,0.3,0l0.3,0.2L24,59.4z M20.2,59.2L20,59.1c-0.1,0-0.3-0.1-0.4-0.1
				c-0.2,0-0.3,0.2-0.4,0.4c-0.1,0.4,0.1,0.7,0.4,0.8c0.3,0.1,0.3,0.1,0.3-0.1L20.2,59.2z M20.5,58.5c0.2-0.4,0.1-0.5-0.2-0.7
				l0.1-0.2l1.5,0.5l-0.1,0.2c-0.4-0.1-0.4-0.1-0.6,0.3L20.7,60c-0.2,0.5-0.1,0.5,0.2,0.6l-0.1,0.2l-1.5-0.6
				c-0.3-0.1-0.5-0.2-0.6-0.4c-0.1-0.2-0.2-0.4-0.1-0.7c0.1-0.4,0.5-0.5,0.8-0.5c0-0.2-0.1-0.5-0.2-0.8c-0.1-0.3-0.1-0.4-0.2-0.5
				c-0.1-0.1-0.1-0.2-0.2-0.3l0.1-0.2l0.2,0.1c0.5,0.2,0.6,0.4,0.7,0.7c0.1,0.2,0.1,0.6,0.2,0.8c0,0.2,0.1,0.2,0.2,0.3h0.1
				L20.5,58.5z M16.9,57.4L16.2,57L16,58l0,0L16.9,57.4z M16.7,56.2L16.7,56.2c-0.3-0.2-0.3-0.2-0.4,0.1l-0.1,0.4l0.8,0.5
				c0.1,0,0.2-0.2,0.4-0.3c0.2-0.1,0.1-0.2,0-0.3l-0.1-0.1l0.1-0.2l1,0.6l-0.1,0.2c-0.3-0.1-0.4-0.2-0.7,0.1l-2,1.5l-0.2-0.1
				l0.4-2.6c0.1-0.4-0.1-0.5-0.3-0.6l0.1-0.2l1.3,0.8L16.7,56.2z M14.2,55.1c0.3-0.4,0.4-0.4,0.7-0.1l0.1-0.1l-1.9-1.6
				c-0.1,0.1-0.5,0.4-0.6,0.5l0.1,0.1c0.2-0.1,0.3-0.2,0.5-0.2s0.3,0.1,0.5,0.2s0.3,0.2,0.3,0.3c0,0.1,0,0.2-0.2,0.4l-0.4,0.5
				L13,54.8c-0.3-0.2-0.3-0.3-0.1-0.6l-0.1-0.1L12.1,55l0.1,0.1c0.3-0.2,0.3-0.2,0.6,0l0.3,0.3L12.5,56c-0.1,0.1-0.1,0.1-0.2,0
				l-0.2-0.2c-0.2-0.2-0.3-0.3-0.3-0.4s0-0.2,0.1-0.4l-0.2-0.1c-0.2,0.3-0.4,0.5-0.4,0.6l1.8,1.5l0.1-0.1c-0.3-0.3-0.3-0.3,0-0.7
				L14.2,55.1z M11.6,53.1c0.2-0.3,0.4-0.6,0.5-0.7c0-0.1-0.1-0.5-0.4-0.8c-0.5-0.5-1.1-0.7-1.5-0.3c-0.4,0.4-0.3,0.8-0.1,1.3
				l0.1,0.2c0.1,0.2,0.1,0.5-0.1,0.6c-0.2,0.2-0.4,0.1-0.6,0c-0.2-0.3-0.2-0.6,0-0.9l-0.2-0.1c-0.2,0.3-0.4,0.4-0.5,0.6
				c0.1,0.1,0.2,0.4,0.4,0.6c0.5,0.6,1.1,0.6,1.5,0.2c0.3-0.3,0.2-0.7,0.1-1.1l-0.1-0.2c-0.1-0.3-0.1-0.6,0.1-0.8
				c0.2-0.2,0.5-0.1,0.7,0.1c0.3,0.3,0.2,0.9,0,1.2L11.6,53.1z M7.9,50.6c-0.4,0.3-0.4,0.3-0.7,0H7l0.9,1.3L8,51.8
				c-0.2-0.3-0.2-0.4,0.2-0.7l1.2-0.9c0.4-0.3,0.4-0.3,0.7,0l0.1-0.1l-0.9-1.3L9.2,49c0.2,0.3,0.2,0.4-0.2,0.7L7.9,50.6z M7.6,47.4
				c0.3-0.2,0.4-0.3,0.2-0.5c-0.3-0.6-0.9-0.7-1.6-0.3c-0.7,0.4-0.9,0.9-0.5,1.5c0.1,0.2,0.1,0.2,0.2,0.3c0,0,0.1,0,0.2-0.1
				L7.6,47.4z M5.5,48.1c-0.3-0.5-0.4-0.9-0.3-1.4c0.1-0.3,0.3-0.6,0.6-0.8c1-0.5,1.8,0,2.3,0.9L8.8,48l-0.2,0.1
				c-0.2-0.4-0.3-0.4-0.7-0.1l-1.3,0.7c-0.4,0.2-0.4,0.3-0.3,0.6l-0.2,0.1L5.5,48.1z M4.3,44c-0.4,0.2-0.5,0.2-0.7-0.2l-0.2,0.1
				L4,45.4l0.2-0.1c-0.1-0.4-0.1-0.4,0.3-0.6l1.4-0.6c0.4-0.2,0.5-0.2,0.7,0.2l0.2-0.1l-0.6-1.5L6,42.9c0.1,0.4,0.1,0.4-0.3,0.6
				L4.3,44z M3.1,42.8l0.2-0.1c-0.1-0.4-0.1-0.5,0.4-0.6l0.9-0.3c0.5-0.1,0.8-0.3,0.9-0.6s0.1-0.6,0-0.9c-0.1-0.4-0.3-0.7-0.6-0.8
				c-0.3-0.2-0.7-0.2-1.1,0l-0.3,0.1c-0.4,0.1-0.6,0.2-0.8,0.2c-0.2,0-0.3-0.1-0.3-0.3H2.2l0.4,1.2l0.2-0.1c-0.1-0.3,0-0.4,0.1-0.5
				s0.3-0.2,0.8-0.3L4,39.7c0.7-0.2,1.2-0.1,1.3,0.4c0.1,0.5-0.2,0.9-0.9,1.1l-0.8,0.2c-0.5,0.1-0.5,0.1-0.6-0.3l-0.2,0.1L3.1,42.8z
				 M1.5,35.4l2,0.6l-1.8,1.2l0.1,1.1H2c0-0.4,0-0.5,0.5-0.5l1-0.1c0.4,0,0.6,0,0.7,0c0.2,0,0.3,0.1,0.3,0.4h0.2l-0.2-1.2H4.3
				c0,0.3,0,0.5-0.2,0.5c-0.1,0-0.3,0.1-0.8,0.1l-1,0.1l0,0l2-1.2v-0.2L2,35.3l0,0L3.7,35c0.4-0.1,0.5,0,0.5,0.4h0.2l-0.2-1.6H4
				c0,0.5,0,0.5-0.4,0.5L2,34.6c-0.4,0.1-0.5,0-0.5-0.4H1.3L1.5,35.4z M2.6,31.5c-0.4,0-0.7,0.3-0.7,0.7s0.3,0.7,0.7,0.7
				c0.4,0,0.7-0.3,0.7-0.7C3.3,31.8,3,31.5,2.6,31.5 M3.1,29.5l0.1-0.7l-1,0.2l0,0L3.1,29.5z M4.1,28.8L4.1,28.8
				c0-0.3,0-0.3-0.3-0.2l-0.4,0.1l-0.1,0.9c0.1,0,0.3,0.1,0.5,0.2c0.2,0.1,0.2,0,0.3-0.1v-0.1h0.2l-0.1,1.2H4c0-0.3,0-0.4-0.4-0.6
				l-2.2-1.1v-0.2l2.5-0.8c0.4-0.1,0.4-0.3,0.4-0.5h0.2l-0.1,1.5L4.1,28.8z M3,23.9c-0.3,0-0.6,0-0.8-0.1c-0.1,0.1-0.2,0.4-0.3,0.9
				c-0.2,1,0.3,1.9,1.2,2.1c0.7,0.1,1.6-0.3,1.8-1.4c0.1-0.4,0-0.8,0-1c-0.1-0.1-0.5-0.3-0.8-0.4v0.2c0.4,0.3,0.7,0.6,0.6,1.1
				c-0.1,0.6-0.7,1-1.5,0.8c-0.7-0.1-1.1-0.6-1-1.2c0.1-0.4,0.3-0.7,0.9-0.7L3,23.9z M4.3,22.4l0.2-0.7l-1,0.1l0,0L4.3,22.4z
				 M5.4,21.9L5.4,21.9c0-0.3,0-0.3-0.3-0.3H4.7l-0.3,0.9c0.1,0,0.2,0.2,0.4,0.3C5,22.9,5,22.9,5.1,22.7l0.1-0.1l0.2,0.1l-0.3,1.1
				l-0.2-0.1c0-0.3,0.1-0.4-0.3-0.7l-1.9-1.6v-0.2L5.3,21c0.4,0,0.4-0.2,0.5-0.4L6,20.7L5.6,22L5.4,21.9z M6,18.8
				c0.3,0.2,0.5,0.1,0.6-0.1c0.3-0.6,0-1.2-0.7-1.5c-0.8-0.3-1.3-0.1-1.5,0.5C4.3,17.9,4.3,18,4.3,18s0.1,0.1,0.2,0.1L6,18.8z
				 M4.2,17.5c0.2-0.5,0.5-0.9,0.9-1.1c0.3-0.1,0.7-0.1,1,0c1,0.5,1.1,1.4,0.6,2.4l-0.6,1.3L6,20c0.1-0.4,0.1-0.4-0.3-0.6l-1.3-0.6
				C4,18.6,3.9,18.6,3.7,19l-0.2-0.1L4.2,17.5z M7.5,15.9c0.4,0.2,0.4,0.3,0.2,0.7l0.2,0.1l1.3-2.2c-0.1-0.1-0.5-0.4-0.6-0.6
				l-0.1,0.2c0.1,0.2,0.2,0.3,0.3,0.4c0,0.1,0,0.3-0.2,0.5c-0.1,0.2-0.2,0.3-0.3,0.4c-0.1,0.1-0.2,0-0.4-0.1L7.3,15l0.2-0.4
				c0.2-0.3,0.2-0.3,0.5-0.2l0.1-0.2l-0.8-0.5l-0.1,0.2c0.3,0.2,0.3,0.2,0.1,0.6L7,14.8l-0.7-0.5c-0.1-0.1-0.1-0.1,0-0.2l0.1-0.2
				c0.2-0.3,0.3-0.4,0.4-0.4s0.2,0,0.5,0.1l0.1-0.2c-0.3-0.2-0.6-0.3-0.7-0.4l-1.2,2l0.2,0.1C5.9,14.8,6,14.8,6.4,15L7.5,15.9z
				 M7.5,15.9c0.4,0.2,0.4,0.3,0.2,0.7l0.2,0.1l1.3-2.2c-0.1-0.1-0.5-0.4-0.6-0.6l-0.1,0.2c0.1,0.2,0.2,0.3,0.3,0.4
				c0,0.1,0,0.3-0.2,0.5c-0.1,0.2-0.2,0.3-0.3,0.4c-0.1,0.1-0.2,0-0.4-0.1L7.3,15l0.2-0.4c0.2-0.3,0.2-0.3,0.5-0.2l0.1-0.2l-0.8-0.5
				l-0.1,0.2c0.3,0.2,0.3,0.2,0.1,0.6L7,14.8l-0.7-0.5c-0.1-0.1-0.1-0.1,0-0.2l0.1-0.2c0.2-0.3,0.3-0.4,0.4-0.4s0.2,0,0.5,0.1
				l0.1-0.2c-0.3-0.2-0.6-0.3-0.7-0.4l-1.2,2l0.2,0.1C5.9,14.8,6,14.8,6.4,15L7.5,15.9z M9.2,9.7l0.9,1.9L8,11.1l-0.7,0.8L7.4,12
				c0.3-0.3,0.3-0.4,0.7,0l0.7,0.7c0.3,0.3,0.4,0.4,0.5,0.5s0.1,0.3-0.1,0.5l0.1,0.1l0.8-0.9L10,12.8C9.8,13,9.7,13.1,9.5,13
				c-0.1-0.1-0.2-0.2-0.6-0.5l-0.7-0.7l0,0l2.3,0.7l0.1-0.1l-1-2.4l0,0l1.4,1c0.3,0.3,0.3,0.3,0.1,0.7l0.1,0.1l1-1.2l-0.1-0.1
				c-0.3,0.3-0.3,0.3-0.7,0.1l-1.2-1c-0.3-0.3-0.3-0.3-0.1-0.7L10,8.8L9.2,9.7z M12.1,7.8c-0.3-0.4-0.3-0.4,0-0.7L11.9,7l-1.2,1.1
				l0.1,0.1c0.3-0.3,0.4-0.3,0.7,0.1l1,1.1c0.3,0.4,0.3,0.4,0,0.7l0.1,0.1l1.2-1.1L13.7,9c-0.3,0.3-0.4,0.3-0.7-0.1L12.1,7.8z
				 M14.4,7.2L15,6.8l-0.8-0.6l0,0L14.4,7.2z M15.6,7.6L15.6,7.6c0.2-0.2,0.2-0.3,0-0.4L15.2,7l-0.7,0.5c0,0.1,0.1,0.3,0.1,0.5
				c0.1,0.2,0.1,0.2,0.3,0.1L15,8l0.1,0.1l-1,0.7L14,8.7c0.2-0.2,0.3-0.3,0.2-0.7l-0.5-2.4l0.2-0.2l2.2,1.4c0.3,0.2,0.4,0.1,0.7,0
				L16.9,7l-1.2,0.8L15.6,7.6z M17.9,4.7c-0.2-0.4-0.6-0.5-1-0.3c-0.3,0.2-0.5,0.6-0.3,1s0.6,0.5,1,0.3C17.9,5.4,18.1,5,17.9,4.7
				 M21.9,4.8c0-0.2-0.1-0.6-0.1-0.9h-0.2c0,0.3,0,0.5-0.1,0.6s-0.2,0.2-0.4,0.3c-0.2,0.1-0.3,0.1-0.4,0.1c-0.1,0-0.2-0.1-0.3-0.4
				L20,3.2c-0.2-0.5-0.1-0.5,0.3-0.7l-0.1-0.2l-1.5,0.5L18.8,3c0.4-0.1,0.4-0.1,0.6,0.4l0.5,1.4c0.2,0.5,0.1,0.5-0.3,0.7l0.1,0.2
				L21.9,4.8z M21.8,1.8V2c0.4,0,0.4,0,0.5,0.5l0.2,1c0.1,0.5,0.3,0.8,0.5,1c0.3,0.1,0.6,0.1,0.9,0.1c0.4-0.1,0.7-0.2,0.9-0.5
				S25,3.4,25,3l-0.1-0.3c-0.1-0.4-0.1-0.7-0.1-0.8c0-0.2,0.1-0.3,0.4-0.3V1.4L24,1.6v0.2c0.3,0,0.4,0,0.5,0.2
				c0,0.1,0.1,0.4,0.2,0.8v0.3c0.1,0.7,0,1.2-0.6,1.3c-0.5,0.1-0.8-0.3-0.9-1L23,2.3c-0.1-0.5,0-0.5,0.3-0.6V1.5L21.8,1.8z
				 M28.9,2.2c0-0.4,0-0.7-0.1-0.8c-0.2,0-0.5-0.1-0.9-0.2c-1,0-1.9,0.5-1.9,1.5c0,0.9,0.7,1.5,1.8,1.5c0.4,0,0.8-0.1,1.1-0.2
				c0-0.1,0-0.2,0-0.4V3.3c0-0.3,0-0.3,0.3-0.4V2.7h-1.5v0.2c0.5,0,0.5,0.1,0.5,0.4v0.4C28.2,4,28,4,27.9,4c-0.8,0-1.1-0.7-1.1-1.4
				c0-0.9,0.5-1.2,1-1.2c0.4,0,0.8,0.2,0.9,0.8L28.9,2.2z M31,3.8c-0.1,0.4-0.1,0.5,0.3,0.5c0.7,0.2,1.1-0.2,1.3-1S32.5,2,31.8,1.9
				c-0.2,0-0.3-0.1-0.3,0c0,0-0.1,0.1-0.1,0.2L31,3.8z M31.9,1.8c0.5,0.1,1,0.3,1.2,0.7c0.2,0.3,0.3,0.6,0.2,1
				c-0.2,1.1-1.2,1.3-2.2,1.1l-1.4-0.3V4.1c0.4,0.1,0.5,0,0.6-0.4l0.3-1.4c0.1-0.5,0.1-0.5-0.3-0.6V1.5L31.9,1.8z M34.5,2.4
				l-0.1,0.2c0.4,0.2,0.4,0.2,0.2,0.7l-0.4,0.9C34,4.7,34,5,34.2,5.3c0.1,0.3,0.4,0.5,0.7,0.6c0.4,0.2,0.7,0.2,1,0.1
				s0.6-0.4,0.7-0.9l0.1-0.3c0.2-0.4,0.3-0.6,0.4-0.7C37.2,4,37.3,4,37.6,4l0.1-0.2l-1.2-0.5l-0.1,0.2c0.3,0.1,0.4,0.2,0.3,0.4
				c0,0.1-0.1,0.4-0.3,0.8L36.3,5c-0.3,0.6-0.7,1-1.2,0.8s-0.5-0.7-0.3-1.4l0.3-0.8c0.2-0.4,0.2-0.5,0.6-0.3l0.1-0.2L34.5,2.4z
				 M40.3,7c0.3-0.4,0.4-0.6,0.5-0.7s0.3-0.1,0.5,0l0.1-0.2l-1.1-0.7l-0.1,0.2c0.3,0.2,0.3,0.3,0.3,0.5c-0.1,0.1-0.2,0.3-0.4,0.7
				l-0.4,0.6l0,0l-0.4-2.6l-0.8-0.6l-0.1,0.1c0.4,0.3,0.4,0.4,0.1,0.8L38,5.9c-0.3,0.4-0.4,0.6-0.5,0.7s-0.3,0.1-0.5,0l-0.1,0.2
				L38,7.5l0.1-0.2c-0.3-0.2-0.3-0.3-0.3-0.5c0.1-0.1,0.2-0.3,0.4-0.7l0.5-0.7l0,0l0.4,2.9l0.3,0.2L40.3,7z M41.7,8.3
				c-0.5,0.6-0.7,1.3-0.3,1.6c0.3,0.3,0.8,0.3,1.4-0.3c0.5-0.5,0.7-1.2,0.3-1.6C42.8,7.7,42.2,7.7,41.7,8.3 M43.3,7.8
				C44,8.5,44,9.4,43.5,10c-0.7,0.8-1.6,0.6-2.3,0c-0.8-0.7-0.7-1.7-0.2-2.2C41.8,7.1,42.8,7.3,43.3,7.8 M45.2,11.9
				c0.3-0.3,0.4-0.7,0.1-1c-0.2-0.3-0.7-0.3-1-0.1c-0.3,0.3-0.4,0.7-0.1,1C44.4,12.1,44.9,12.1,45.2,11.9 M46.3,13.4l0.1,0.2
				c0.2,0.2,0.4,0.4,0.8,0.2c0.3-0.2,0.2-0.5,0.1-0.7S47.1,12.9,47,13L46.3,13.4z M46.2,13.5l-0.6,0.4c-0.4,0.2-0.3,0.4-0.2,0.6
				c0.2,0.2,0.5,0.4,0.8,0.1c0.4-0.3,0.3-0.6,0.1-1L46.2,13.5z M46.4,12.6c0.4-0.3,0.4-0.3,0.2-0.6l0.2-0.1l0.9,1.4
				c0.3,0.5,0.4,0.9,0,1.2c-0.3,0.2-0.7,0-0.9-0.2l0,0c0.2,0.4,0.2,0.8-0.2,1.1c-0.6,0.4-1.1-0.2-1.4-0.7l-0.8-1.2l0.2-0.1
				c0.2,0.3,0.3,0.3,0.7,0.1L46.4,12.6z M47.7,16.6l0.3,0.7l0.7-0.7l0,0H47.7z M47.1,17.7L47.1,17.7c0.2,0.3,0.3,0.3,0.5,0l0.3-0.3
				l-0.4-0.8c-0.1,0-0.3,0-0.5,0.1c-0.2,0-0.2,0.1-0.2,0.3l0.1,0.1l-0.2,0.1l-0.5-1.1l0.2-0.1c0.2,0.2,0.2,0.3,0.7,0.3l2.5-0.1
				l0.2,0.2l-1.7,1.9c-0.3,0.3-0.2,0.4-0.1,0.7l-0.2,0.1L47.1,17.7L47.1,17.7z M50.7,19.8l0.1,0.2c0.1,0.2,0.1,0.4,0.1,0.5
				s-0.1,0.2-0.4,0.3l0.1,0.2c0.2-0.1,0.6-0.3,0.8-0.4v-0.1c-0.1,0-0.1-0.1-0.2-0.2l-0.7-1.9c-0.1-0.1-0.1-0.2,0-0.3V18
				c-0.2,0.1-0.5,0.2-0.9,0.3l0.1,0.2c0.3,0,0.4,0,0.5,0s0.2,0.1,0.3,0.5l0.1,0.1l-1.8,0.7C48.2,20,48.2,20,48,19.6l-0.2,0.1
				l0.6,1.5l0.2-0.1c-0.1-0.4-0.1-0.5,0.3-0.6L50.7,19.8z M50,22.6l0.2,0.7l0.8-0.6l0,0L50,22.6z M49.3,23.6L49.3,23.6
				c0.1,0.3,0.1,0.3,0.4,0.1l0.3-0.2l-0.2-0.9c-0.1,0-0.3,0-0.5,0s-0.2,0-0.2,0.2v0.1h-0.2l-0.3-1.1h0.2c0.1,0.3,0.1,0.4,0.6,0.4
				l2.4,0.4l0.1,0.2l-2.1,1.6c-0.3,0.2-0.3,0.4-0.2,0.6h-0.2L49,23.6L49.3,23.6z M49.6,26.5c1,0.2,2.2,0.6,2.4,0.6
				c0.4,0.1,0.5,0.2,0.6,0.5h0.2l-0.2-1.2h-0.2v0.1c0,0.2-0.1,0.3-0.3,0.2c-0.2,0-1.3-0.2-1.6-0.3l1.4-0.9c0.2-0.1,0.3-0.1,0.3,0
				v0.2h0.2l-0.2-1.5H52c0,0.3,0,0.4-0.3,0.6l-2.2,1.4L49.6,26.5z M51.1,28.7v0.7L52,29l0,0L51.1,28.7z M50.2,29.5L50.2,29.5
				c0,0.3,0.1,0.3,0.4,0.2l0.4-0.2l-0.1-0.9c-0.1,0-0.3-0.1-0.5-0.1s-0.2,0-0.3,0.2v0.2h-0.2l-0.1-1.2H50c0.1,0.3,0.1,0.4,0.5,0.5
				l2.3,0.8l0.1,0.2l-2.3,1.1c-0.3,0.2-0.4,0.3-0.4,0.6H50v-1.4H50.2z M51.6,32.9c0.4,0,0.7-0.3,0.7-0.7s-0.3-0.7-0.7-0.7
				c-0.4,0-0.7,0.3-0.7,0.7C50.9,32.6,51.2,32.9,51.6,32.9 M49.7,36.3c0.2,0.1,0.6,0.2,0.8,0.3v-0.2c-0.3-0.1-0.4-0.2-0.5-0.3
				c0-0.2,0-0.3,0-0.6c0-0.2,0-0.3,0.1-0.4c0.1-0.1,0.2-0.1,0.5-0.1l1.4,0.2c0.5,0.1,0.5,0.1,0.5,0.5h0.2l0.2-1.6h-0.2
				c-0.1,0.4-0.1,0.4-0.6,0.4l-1.5-0.2c-0.5,0-0.5-0.1-0.5-0.5h-0.2L49.7,36.3z M51.4,39.1c0.5,0.1,0.5,0.1,0.4,0.5H52l0.3-1.5h-0.2
				c-0.1,0.4-0.1,0.4-0.6,0.3l-1.4-0.3c-0.5-0.1-0.5-0.1-0.4-0.5h-0.2L49.2,39h0.2c0.1-0.4,0.1-0.4,0.6-0.3L51.4,39.1z M50.1,42
				L50,42.2c-0.1,0.3-0.1,0.6,0.3,0.7c0.3,0.1,0.5-0.1,0.6-0.4c0.1-0.2,0.1-0.3-0.1-0.3L50.1,42z M49.9,41.9l-0.7-0.2
				c-0.4-0.1-0.5,0-0.6,0.2c-0.1,0.3,0,0.6,0.4,0.7c0.4,0.1,0.7-0.1,0.8-0.5L49.9,41.9z M50.8,41.5c0.4,0.2,0.5,0.1,0.6-0.2l0.2,0.1
				L51.1,43c-0.2,0.5-0.5,0.9-0.9,0.7c-0.4-0.1-0.4-0.5-0.4-0.8l0,0c-0.2,0.4-0.5,0.7-1,0.5c-0.6-0.2-0.6-1-0.4-1.5l0.5-1.4l0.2,0.1
				C49,41,49,41,49.5,41.2L50.8,41.5z M47.8,45.1c-0.4-0.2-0.4-0.3-0.3-0.7l-0.2-0.1l-1.1,2.3c0.1,0.1,0.5,0.4,0.6,0.5L47,47
				c-0.2-0.2-0.3-0.3-0.3-0.4s0-0.3,0.1-0.5s0.2-0.3,0.3-0.4c0.1-0.1,0.2,0,0.5,0.1l0.6,0.3L48,46.5c-0.2,0.3-0.2,0.3-0.5,0.2
				l-0.1,0.2l0.9,0.4l0.1-0.2c-0.3-0.2-0.3-0.2-0.1-0.6l0.2-0.4l0.8,0.4c0.1,0.1,0.1,0.1,0.1,0.2L49.1,47c-0.1,0.3-0.3,0.4-0.3,0.4
				c-0.1,0-0.2,0-0.5,0l-0.1,0.2c0.3,0.1,0.6,0.2,0.7,0.3l1.1-2.1l-0.2-0.1c-0.2,0.3-0.2,0.4-0.7,0.1L47.8,45.1z M46.1,49.6
				L46.1,49.6c-0.2,0.2-0.3,0.4-0.3,0.5c0,0.2,0.1,0.4,0.3,0.5c0.3,0.2,0.7,0.1,0.8-0.2c0.2-0.2,0.2-0.2,0-0.3L46.1,49.6z
				 M45.5,49.2c-0.4-0.3-0.4-0.3-0.7,0.1l-0.1-0.1l0.9-1.3l0.1,0.1c-0.2,0.4-0.2,0.4,0.2,0.7l1.2,0.8c0.4,0.3,0.4,0.3,0.7,0l0.1,0.1
				L47,50.9c-0.2,0.2-0.3,0.4-0.5,0.5s-0.5,0.1-0.7-0.1c-0.3-0.2-0.4-0.6-0.2-0.9c-0.2,0-0.5,0-0.8,0s-0.5,0-0.6,0s-0.2,0.1-0.3,0.2
				l-0.1-0.1l0.1-0.2c0.3-0.5,0.6-0.5,0.9-0.5s0.6,0,0.8,0.1c0.2,0,0.2,0,0.3-0.2l0.1-0.1L45.5,49.2z M43.9,54.2l-0.2,0.2
				c-0.2,0.2-0.3,0.3-0.4,0.3s-0.2,0-0.5-0.2l-0.1,0.1c0.2,0.2,0.5,0.4,0.7,0.6l0.1-0.1c0-0.1,0-0.1,0.1-0.3l1.4-1.5
				c0.1-0.1,0.2-0.1,0.3-0.1l0.1-0.1c-0.2-0.2-0.4-0.4-0.6-0.7l-0.1,0.1c0.1,0.2,0.2,0.3,0.2,0.4s0,0.2-0.3,0.5l-0.1,0.1L43,52.4
				c-0.3-0.3-0.3-0.4-0.1-0.7l-0.1-0.1l-1.1,1.2l0.1,0.1c0.3-0.3,0.4-0.3,0.7,0L43.9,54.2z M40.8,55.1l-0.6,0.4L41,56l0,0L40.8,55.1
				z M39.6,54.8L39.6,54.8c-0.2,0.2-0.2,0.3,0,0.4l0.4,0.2l0.7-0.5c0-0.1-0.1-0.3-0.2-0.5c-0.1-0.2-0.1-0.2-0.3-0.1l-0.1,0.1
				L40,54.2l0.9-0.7l0.1,0.1c-0.2,0.2-0.3,0.3-0.2,0.7l0.6,2.4l-0.2,0.2L39,55.6c-0.3-0.2-0.4-0.1-0.7,0l-0.1-0.1l1.2-0.9L39.6,54.8
				z M37.5,59l-0.2,0.1c-0.2,0.1-0.4,0.2-0.5,0.1c-0.1,0-0.2-0.1-0.4-0.3L36.2,59c0.1,0.2,0.4,0.6,0.5,0.8h0.1c0-0.1,0-0.1,0.2-0.2
				l1.8-1c0.1-0.1,0.2-0.1,0.3,0h0.1c-0.1-0.2-0.2-0.5-0.4-0.8l-0.2,0.1c0.1,0.2,0.1,0.4,0,0.5c0,0.1-0.1,0.2-0.5,0.4L38,58.9
				L37.1,57c-0.2-0.4-0.2-0.5,0.2-0.7l-0.1-0.2l-1.5,0.8l0.1,0.2c0.4-0.2,0.5-0.2,0.7,0.2L37.5,59z M33.7,60.1
				c0.2,0.5,0.1,0.5-0.2,0.6l0.1,0.2l1.5-0.5L35,60.2c-0.4,0.1-0.4,0.1-0.6-0.4l-0.5-1.4c-0.2-0.4-0.1-0.5,0.2-0.6L34,57.6l-1.5,0.5
				l0.1,0.2c0.4-0.1,0.4-0.1,0.6,0.4L33.7,60.1z M31.5,59.4c-0.1-0.3-0.2-0.7-0.3-0.8c-0.1-0.1-0.4-0.2-0.9-0.1
				c-0.7,0.1-1.1,0.5-1,1.1c0.1,0.5,0.5,0.7,1,0.8h0.2c0.3,0,0.5,0.2,0.5,0.4c0,0.2-0.1,0.5-0.4,0.5c-0.3,0.1-0.6-0.2-0.8-0.5
				l-0.2,0.1c0.1,0.3,0.2,0.5,0.2,0.7c0.1,0,0.4,0.1,0.7,0c0.7-0.1,1.1-0.6,1-1.1c-0.1-0.4-0.5-0.6-0.9-0.7h-0.2
				c-0.3-0.1-0.5-0.2-0.6-0.5c0-0.3,0.1-0.5,0.4-0.5c0.4-0.1,0.8,0.3,1,0.7L31.5,59.4z M26.4,60.5c0,0.4,0.3,0.7,0.7,0.7
				s0.7-0.3,0.7-0.7c0-0.4-0.3-0.7-0.7-0.7S26.4,60.1,26.4,60.5 M19,26.6L19,26.6L19,26.6 M46.5,23.5c0.2-0.2,0.4-0.3,0.7-0.2l0,0
				c-0.2-0.2-0.6-0.2-0.9,0c-0.2,0.2-0.2,0.6,0,0.9l0,0C46.2,24,46.3,23.7,46.5,23.5 M43.3,14c3.5,4.6,5.6,10.8,5.6,17.5
				c0,3.8-0.7,7.4-1.9,10.6c0,0.1-0.1,0.2-0.1,0.3h-2.4c0.3,0.2,0.4,0.5,0.4,0.7c0,0.5-0.3,0.5-1,0.5h-0.2h-6.6H37
				c-0.4,0-0.8,0-1-0.2c0,0.1,0-0.1,0-0.2c0-0.3,0.1-0.5,0.4-0.7H32c0.3-0.4,0.6-1,0.8-1.7c0.9-3.1,0.8-6.5,0.9-9.3c0-1.6,0-1.5,0-3
				c0,0,0.3-0.1,0.1-0.7c-0.1-0.3-0.3-0.6-0.6-0.8c0-0.1,0-0.3-0.1-0.4l-0.2-0.2v-0.1c0-0.1-0.1-0.4-0.1-0.7c0-1-0.6-2.8-0.6-2.8
				s0.1,0.1,0.4,0c0.4-0.1,0.4-0.6,0.1-0.9c-0.1-0.1-0.4-0.6-0.6-0.8c-0.1-0.3-0.4-0.8-0.4-1.1c-0.1-0.3,0-1.7,0-2.1
				c0.2-3.2-1.3-3.4-1.8-3.6c-0.2-0.1-0.3-0.2-0.5-0.3c0,0.6-0.9,1-1.8,1c-0.9,0-1.8-0.4-1.8-1c0,0,0-0.1,0.1-0.2l-0.4,0.1
				C25,14,24.8,14,24.6,14.1c-0.7,0.3-0.9,0.9-0.9,1.1c-0.3,0.7-0.5,1.4-0.5,1.4c-0.1,0.2-0.2,0.5-0.2,0.5s-0.2-0.2-0.3-0.3
				c-0.2-0.2-1.3-1.2-1.5-1.4c-0.1-0.1-0.8,0.1-0.8,0.1c1.4,1.1,2.5,2.5,2.7,2.8c0.1,0.2,0,0.1-0.1,0.1c-1.5-0.7-3.5-0.5-3.5-0.5
				L19,18.5c2.1-0.2,3.7,0,4.1,0.6c0.1,0.1,0.3,0.2,0.5,0.2s0.3-0.2,0.3-0.4c0-0.1,0-0.1,0.1-0.3c1-2.1,3.7-3.1,3.7-3.1l1.1,3.3
				c0.4,0.1,0.5,0.1,0.8,0.1c-0.1-0.2-0.5-0.6-0.4-0.8c0-0.1,0.5,0,0.7-0.1c0.3-0.2,0.6-0.5,0.3-1.5C30.1,16.3,30,16.1,30,16
				l0.2-0.1c0,0.1,0.1,0.2,0.2,0.5c0.5,1.3-0.1,1.6-0.3,1.8L30,18.3c-0.1,0.2,0,0.5,0.1,0.6c0.2,0.1,0.2,0.2,0.2,0.2v0.7
				c-0.8-0.4-2.9-0.4-2.8-0.4c0.1,0,0.4-0.2,0.3-0.3c0,0-0.3,0-0.5,0c-0.1,0-0.1-0.1,0-0.1c0,0,0.1,0,0.3-0.1
				c0.3-0.2,0.5-0.5,0.6-0.6s-0.1-0.2-0.1-0.2c0-0.1-0.1-0.2-0.3-0.1c-0.1,0-0.6,0.3-0.8,0.3c-0.1,0-0.2-0.1-0.1-0.1
				c0.3-0.4,0.4-0.4,0.5-0.7c0.2-0.3-0.1-0.3-0.2-0.2c-0.2,0.2-0.9,0.8-1.2,0.9c-0.2,0.1-0.2,0-0.2-0.1c0.1-0.3,0-0.3,0-0.5
				s-0.3-0.3-0.3-0.1s0,0.4-0.2,0.6c-0.2,0.3-0.1,0.7-0.2,0.8c-1.1,0.8-2,0.5-2,0.5c-0.1-0.3-1-0.6-1.4-0.2c-1.1,1-0.6,3.3-0.6,3.4
				c0.5,1.3,1.3,0.6,1.4,0.5c0.9-0.9,1.2-2.1,1.2-2.1c0.5-0.2,0.8-0.3,1.1-0.6c0.5-0.3,0.8-0.5,1-0.6c0.2,0,0.6-0.2,0.7-0.1v0.2
				C26,20.1,25,21,25,20.9c-0.1,0.7-1.7,2.8-1.1,3.3c0.3,0.2,0.1,0.6,0,1c0,0-0.3,1.4-0.6,4c0,0-0.2,0.7,0.1,0.9
				c0.1,0.1,1.1,0.3,1.7,0.2c0.2,0,0.5,0.2,0.7,0.2c0,0-0.1,1.1-0.2,1.1C25,31.7,25,30.9,25,31s-0.2-0.1-0.2-0.1
				c-0.3,0.1-0.7,0-1.3,0c-0.1,0-0.3,0.1-0.3,0.2c0,0.2,0,0.3-0.1,1.4c0,0.4-0.1,0.6-0.1,1c0,0.2,0,1.6-0.1,2.2
				c-0.1,1.2-0.2,4.4-0.2,5.4c-2.1,0.1-4.1-0.2-3.3-1c0.1-0.1,0.3-0.2,0.4-0.4c0.6-0.5,0.6,0,1.3-1c0.6-1,0.8-2.1,1-3
				c0.2-0.7-0.1-1-0.6,0c-0.1,0.1-0.2,0.5-0.5,0.9c-0.1,0.2-0.4,0.5-0.7,0.6c-0.6,0.2-1-0.9-0.2-1.8c0.3-0.4,0.7-0.3,0.7-0.1
				c0,0,0.1,0.2,0.3,0c0.1-0.1,0.3-0.5,0.3-0.5c0.9-1.3,1.2-3.3,1.2-3.6c0-0.2,0-0.3,0-0.5c0-0.8-0.5-1.1-0.7-0.6
				c-0.2,0.4-0.5,0.3-0.4-0.2c0.3-1.9,1.4-4.4,1.5-4.7s-0.1-0.3-0.2-0.4c-0.1-0.1-0.2-0.1-0.1-0.4c0.2-1,1.2-2.9,1.2-2.9
				c0.2-0.2-0.1-0.3-0.2-0.1c-2.2,3.4-3.1,9.2-3.1,9.6c0,1.5,0.9,0.7,0.9,0.7c-0.3,1.1-0.8,1.6-1.1,2c-1.9,2.8-1.1,4.2-1.1,4.2
				c0.3,0.6,0.8,1.1-0.3,2c-0.4,0.3-1.6,1.2-0.2,2.1c0.4,0.3,0.7,0.5,0.9,0.6h-2c0.3,0.2,0.4,0.5,0.4,0.7c0,0.5-0.3,0.5-1,0.5h-7
				c-0.4,0-0.8,0-1-0.2C9,43.5,9,43.3,9,43.2c0-0.3,0.1-0.5,0.4-0.7H7.3c0-0.1-0.1-0.2-0.1-0.3C6,38.9,5.3,35.3,5.3,31.6
				c0-6.7,2.1-12.9,5.6-17.5c0,0,0,0,0-0.1v9.2c-0.2-0.1-0.5-0.1-0.7,0.1l0,0c0.2,0,0.5,0,0.7,0.2c0.2,0.2,0.2,0.4,0.2,0.6L11,24.2
				v0.3c0.1,0.3,0.5,0.7,1.3,0.7c0.5,0,1.2-0.4,1.2-1.2c0,0-0.1-0.1-0.2-0.2c-0.1,0.3-0.3,0.5-0.6,0.5s-0.6-0.3-0.6-0.6
				s0.3-0.6,0.6-0.6s0.6,0.3,0.6,0.6c0.1,0,0.3,0,0.3-0.4c-0.3,0-0.5-0.3-0.5-0.6s0.3-0.6,0.6-0.6s0.6,0.3,0.6,0.6s-0.2,0.6-0.5,0.6
				c0,0.4,0.2,0.4,0.3,0.4c0-0.3,0.3-0.6,0.6-0.6s0.6,0.3,0.6,0.6s-0.3,0.6-0.6,0.6s-0.5-0.2-0.6-0.5c-0.1,0-0.2,0.2-0.2,0.2
				c0,0.7,0.7,1.2,1.2,1.2c1,0,1.3-0.8,1.3-0.9C16.2,24.2,16,24,16,23.7c0-0.2,0.1-0.3,0.1-0.4c0.2,0,0.5,0,0.6,0.2
				c0.2,0.2,0.2,0.4,0.2,0.7l0,0c0.2-0.2,0.2-0.6,0-0.9c-0.2-0.2-0.4-0.2-0.6-0.2V13c0,0-0.9-7.5,10.5-7.6C37.7,5.3,37.6,13,37.6,13
				v10.1c-0.2,0-0.4,0-0.5,0.2c-0.2,0.2-0.2,0.6,0,0.9l0,0c0-0.2,0-0.5,0.2-0.7s0.4-0.2,0.7-0.2c0.1,0.1,0.2,0.3,0.2,0.4
				c0,0.3-0.2,0.5-0.4,0.6c0,0.1,0.3,0.9,1.3,0.9c0.5,0,1.2-0.4,1.2-1.2c0,0-0.1-0.1-0.2-0.2c-0.1,0.3-0.3,0.5-0.6,0.5
				s-0.6-0.3-0.6-0.6s0.3-0.6,0.6-0.6s0.6,0.3,0.6,0.6c0.1,0,0.3,0,0.3-0.4c-0.3-0.1-0.5-0.3-0.5-0.6s0.3-0.6,0.6-0.6
				s0.6,0.3,0.6,0.6s-0.2,0.6-0.5,0.6c0,0.4,0.2,0.4,0.3,0.4c0-0.3,0.3-0.6,0.6-0.6s0.6,0.3,0.6,0.6s-0.3,0.6-0.6,0.6
				s-0.5-0.2-0.6-0.5c-0.1,0-0.2,0.2-0.2,0.2c0,0.7,0.7,1.2,1.2,1.2c1,0,1.3-0.8,1.3-0.9c-0.1,0-0.1-0.1-0.2-0.1
				c0-0.2,0-0.5,0.2-0.7c0.2-0.2,0.4-0.3,0.7-0.2l0,0c-0.2-0.2-0.4-0.2-0.6-0.2L43.3,14L43.3,14 M16.5,24.5c0,0,0.1,1.1,1.1,1
				c0.3,0,0.5-0.1,0.6-0.2c-0.1,0.1-0.3,0.1-0.4,0.1c-0.8,0-1-0.5-1.1-0.9c0-0.1,0-0.2,0-0.2L16.5,24.5z M8.3,23.8L8.3,23.8
				c0.2,0,0.4,0.1,0.6,0.3s0.2,0.4,0.2,0.7l0,0c0.2-0.2,0.2-0.6,0-0.9C9,23.5,8.6,23.5,8.3,23.8 M7.8,24.2C8,24,8,23.6,7.8,23.3
				c-0.2-0.2-0.6-0.2-0.9,0l0,0c0.2,0,0.5,0,0.7,0.2C7.8,23.7,7.8,24,7.8,24.2L7.8,24.2 M8.2,24.8c0.2,0.3,0.5,0.6,1,0.7
				c0.3,0,0.6-0.1,0.7-0.2c-0.1,0.1-0.3,0.1-0.5,0.1c-0.5,0-0.8-0.3-1-0.7L8.2,24.8z M17.8,43.2c0-0.3-0.2-0.5-0.6-0.7
				c-0.1-0.1-0.3-0.2-0.5-0.2l0,0l0,0l0,0h-6.5l0,0l0,0l0,0c-0.2,0.1-0.4,0.2-0.5,0.2c-0.3,0.2-0.6,0.5-0.6,0.7v0.1L17.8,43.2
				C17.8,43.3,17.8,43.2,17.8,43.2 M19.3,23.3L19.3,23.3c0.2,0,0.4,0.1,0.6,0.3c0.2,0.2,0.2,0.4,0.2,0.7l0,0c0.2-0.2,0.2-0.6,0-0.9
				C20,23,19.6,23,19.3,23.3 M19.5,24.5c-0.3,0.1-0.6,0.5-0.6,1.6c0,0.3,0,0.4,0,0.5H8.3V34c0,2,1.1,3.7,2.7,4.7
				c0.8,0.5,1.7,0.7,2.7,0.7c0.7,0,1.4-0.1,2-0.4c-0.8,0.5-1.7,0.7-2.7,0.7c-0.7,0-1.4-0.1-2-0.4V42h5.5v-3.4
				c1.6-0.9,2.7-2.7,2.7-4.7v-7.4l0,0c0,0,0-0.1,0-0.6C19,25.1,19.2,24.7,19.5,24.5 M18.9,23.8c-0.2-0.2-0.6-0.2-0.9,0l0,0
				c0.2,0,0.5,0,0.7,0.2s0.3,0.4,0.2,0.7l0,0C19.1,24.4,19.1,24,18.9,23.8 M30.8,8c0-0.5,0-1.1-0.9-1.1c0.3,0-0.7-0.1-0.7,0.4
				C29.2,7.6,29,8,28.5,8c0,0-1.1-0.3-0.5-0.5c0.2-0.1,0.7-0.4,0.4-1.1c-0.1-0.2-0.7-0.7-1.3-0.1c-0.1,0.1,0,0.5-0.3,0.5
				s-0.3-0.3-0.3-0.4c0-0.2-0.1-0.5-0.6-0.5s-0.6,0.4-0.6,0.5c0,0.3,0.1,0.3,0.2,0.5c0.2,0.1,0.1,0.5-0.2,0.3
				c-0.1-0.1-1.1-1-2.2-0.4c-0.5,0.3-0.4,0.7-0.1,0.9c0.1,0.1,0.2,0.2,0,0.3c-0.1,0.1-0.5,0.9,0.1,1.3c0.4,0.3,1.1,0.4,1.4-0.2
				c0.1-0.1,0.2-0.6,0.1-1c0-0.1,0.1-0.5,0.7-0.4c0.3,0,0.3,0.2,0.1,0.4c-0.2,0.2-0.8,0.6-0.9,1.8c0,0.3-0.1,0.6-0.5,0.8
				c0,0-0.6,0.3,0,1c0.3,0.4,0.4,0.5-0.3,1.1c-0.1,0.1-0.4,0.3,0.1,0.3c0.3,0,1.3,0,2.1-0.1l-0.1-0.3c-0.7,0.1-1.6,0.1-1.6,0.1
				c1-0.7,0.5-1.6,0.5-1.6c-0.3-0.4,0-0.6,0.5-0.7c0.6-0.1,0.7,0,1.2,0.2c0,0-0.8-0.1-1.1,0.2V11c0,0,0,0.1,0.1,0.2
				c0.6-0.1,0.9-0.2,0.9-0.2s0.1,0.1,0,0.1c0,0-0.1,0.1-0.1,0c0,0-0.1,0.1-0.2,0l0.1,0.1c0,0.1,0,0.2-0.1,0.2s-0.2,0-0.2-0.1
				s0-0.1,0-0.2c-0.1,0-0.2,0-0.4,0.1c0,0,0,0,0,0.1v0.1c0.1,0.2,0.1,0.3,0.1,0.4c0,0.1,0,0.2,0.1,0.2c0,0,0,0.1,0.1,0.2
				c0.2,0.4,0.5,1.1,1.3,0.9c0,0,0.1,0,0.1,0.1c0,0,0,0.1-0.1,0.1c0,0-0.1,0-0.2,0.1c-0.2,0.1-0.3,0.1-0.5,0c0,0.1,0.1,0.2,0.1,0.2
				s-0.3,0-0.4,0.1c0,0.1,0,0,0,0.1c0,0.5,0.7,0.9,1.5,0.9s1.5-0.4,1.5-0.9v-0.1l0,0c-0.1-0.1-0.1-0.1-0.1-0.2
				c-0.4-0.6-0.3-0.8-0.3-0.8c0-0.1,0-0.1,0-0.1c0.7,0,1.3-0.1,2-0.2c0.1,0,0.3-0.2,0.2-0.3s-1.2-0.2-1.2-0.9c0-0.5,0.1-1.1-0.8-1.4
				c-0.1,0-0.1-0.1-0.1-0.2c0-0.2-0.1-0.7-0.3-0.9C28.2,8.5,28,8.3,28,8.2h0.1c0,0,0.4,0.2,0.6,0.6c0.1,0.3,0.4,0.5,1.2,0.5
				C30.6,9.2,30.8,8.4,30.8,8 M44.9,23.7c-0.2,0.2-0.2,0.6,0,0.9l0,0c0-0.2,0-0.5,0.2-0.7s0.4-0.3,0.7-0.2l0,0
				C45.5,23.5,45.1,23.5,44.9,23.7 M44.7,25.4c-0.2,0-0.4,0-0.5-0.1c0.2,0.1,0.4,0.2,0.7,0.2c0.5,0,0.8-0.3,1-0.7l-0.2-0.1
				C45.5,25,45.2,25.3,44.7,25.4 M40.7,31.4H41h0.3v-0.5c0-0.3-0.2-0.3-0.4-0.3v-0.1h1.2v0.1c-0.2,0-0.5,0-0.5,0.3v0.5h0.3V32
				c0.1,0,0.1,0,0.2,0c0.4,0,0.5-0.2,0.5-0.6c0-0.2,0-0.3,0-0.4h0.2c0,0.1,0,0.2,0,0.5v-0.1c0,0.2-0.1,0.4-0.2,0.6
				c-0.1,0.1-0.3,0.2-0.6,0.2h-0.1v0.7h1.2v-3h-2.5v1.5H40.7z M43.4,28.1C43.4,28,43.4,28,43.4,28.1C43.4,28,43.4,28,43.4,28.1
				C43.4,28,43.4,28,43.4,28.1l-0.3-0.2l0,0l0,0l0.1,0.1l0,0c0,0,0,0.1,0.1,0.1C43.3,28.1,43.4,28.1,43.4,28.1 M43.3,28.3
				c-0.2,0-0.3,0.2-0.3,0.2c0.4-0.2,0.4,0.1,0.4,0.1C43.5,28.6,43.6,28.4,43.3,28.3 M43.4,28.1L43.4,28.1L43.4,28.1
				C43.4,28.2,43.4,28.2,43.4,28.1c0.2,0.1,0.2,0.1,0.2,0.1l0,0h0.1l0,0l0,0L43.4,28.1C43.4,28,43.4,28,43.4,28.1 M43.6,30
				c-0.1,0-0.2,0-0.2,0v0.2c0.1,0,0.2-0.1,0.2-0.1C43.7,30.1,43.6,30,43.6,30 M42.9,34.7c0.2-0.4,0.3-0.8,0.3-1.2v-0.4H42v0.1
				c0,0.1,0,0.2,0,0.3L42.9,34.7z M41,34.5c-0.1,0-0.2,0-0.3,0V36c0.4,0,0.9-0.2,1.2-0.4L41,34.5z M40.2,32.3v-0.7h-0.7v0.7H40.2
				v0.8h-0.7l0,0c0,0.5,0.3,0.9,0.7,1.1v-1.1H41v1.1c0.4-0.2,0.7-0.5,0.7-1v-0.1l0,0H41v-0.8H40.2z M41,32.3h0.7v-0.7H41V32.3z
				 M37.9,27.7L37.9,27.7C37.9,27.7,37.9,27.8,37.9,27.7C38,27.8,38,27.8,37.9,27.7L37.9,27.7h0.2l0,0l0,0H37.9L37.9,27.7L37.9,27.7
				L37.9,27.7C37.9,27.6,37.9,27.6,37.9,27.7C37.9,27.6,37.9,27.7,37.9,27.7L37.9,27.7z M38,30.9v2h1.2v-0.5L38,30.9z M40.2,31.4
				h0.3v-1.5H39L40.2,31.4z M38,33.1v0.4c0,1.4,1.1,2.6,2.5,2.6v-1.5c-0.1,0-0.2,0-0.3,0v0.1v-0.1c0,0.2-0.1,0.4-0.2,0.6
				c-0.1,0.1-0.3,0.2-0.6,0.2c-0.2,0-0.4,0-0.5-0.1c-0.2-0.1-0.2-0.3-0.2-0.6V34c0-0.3-0.2-0.3-0.4-0.3v-0.1h1
				c0-0.1-0.1-0.3-0.1-0.4v-0.1C39.2,33.1,38,33.1,38,33.1z M39.3,33.8c-0.2,0-0.3,0.1-0.3,0.3v0.6c0,0.4,0.2,0.6,0.5,0.6
				c0.4,0,0.5-0.2,0.5-0.6c0,0,0,0,0-0.1C39.7,34.4,39.5,34.1,39.3,33.8 M37.4,24.5c-0.1,0.3-0.3,0.9-1.1,0.9
				c-0.2,0-0.3-0.1-0.4-0.1c0.2,0.1,0.4,0.2,0.6,0.2c1.1,0.1,1.1-1,1.1-1L37.4,24.5C37.4,24.3,37.4,24.4,37.4,24.5 M35.2,23.8
				c-0.2,0.2-0.2,0.6,0,0.9l0,0c0-0.2,0-0.5,0.2-0.7s0.4-0.2,0.7-0.2l0,0C35.8,23.5,35.4,23.5,35.2,23.8 M34.1,23.5
				c0.2-0.2,0.4-0.3,0.7-0.2l0,0c-0.2-0.2-0.6-0.2-0.9,0c-0.2,0.2-0.2,0.6,0,0.9l0,0C33.8,24,33.9,23.7,34.1,23.5 M34.7,24.5
				c0.2,0.2,0.4,0.6,0.4,1.5c0,0.4,0,0.5,0,0.6l0,0v6.3h2.6v-1.5c-0.3,0.1-0.7,0.1-0.7,0.1c-0.1,0.1,0,0.5,0,0.5
				c-0.2,0-0.2-0.3-0.2-0.3c-0.2,0-0.2,0.3-0.2,0.3c-0.2-0.1,0-0.3-0.1-0.3s-0.3,0.2-0.3,0.2c0-0.2,0.2-0.4,0.2-0.4
				c-0.1-0.1-0.2,0-0.2,0c0.1-0.4,0.4-0.2,0.5-0.1c0.1,0,0.1,0.1,0.2,0c0.2-0.2,0.6-0.3,0.6-0.3c-0.2,0-0.3-0.2-0.3-0.2
				c0.2,0,0.3-0.1,0.3-0.1c0.1-0.2,0.3-0.3,0.4-0.4V30c-0.2-0.1-0.4-0.2-0.4-0.2c-0.5,0.5-0.7,0.7-0.8,0.7c0,0-0.1,0-0.1,0.1
				c0,0.2-0.1,0.3-0.1,0.3s0-0.2-0.2-0.2s-0.2,0.2-0.2,0.2c-0.2-0.1,0-0.4,0-0.4c-0.1,0-0.3,0.1-0.3,0.1c-0.1-0.2,0.2-0.3,0.2-0.3
				c-0.1,0-0.3,0-0.3,0c0.1-0.2,0.4-0.2,0.5-0.1c0,0.1,0.1,0.1,0.1,0c0.1-0.1,0.6-0.6,0.7-0.7c-0.1,0-0.3,0-0.5-0.1
				c0,0,0.3,0,0.5-0.2c0,0,0-0.1-0.1-0.1c-0.4-0.3-0.9-0.8-0.9-0.8c-0.3,0-0.4-0.2-0.4-0.2c0.1,0,0.3,0,0.3-0.1s-0.3-0.2-0.3-0.2
				c0.1-0.1,0.3,0,0.3,0l-0.2-0.3c0.1,0,0.3,0.2,0.3,0.2c0-0.1,0-0.3,0-0.3c0.3,0.2,0.2,0.6,0.2,0.6l0.9,0.7
				c0.2,0.1,0.4,0.1,0.6-0.1c0.2-0.2,0-0.3-0.1-0.3h-0.2c0-0.1,0-0.2,0-0.2c0.1,0,0.3,0,0.3,0s0.1-0.1,0-0.1
				c-0.3-0.1-0.4-0.2-0.4-0.2c0-0.1,0-0.2,0-0.2c0.1,0,0.2,0,0.2,0c0.1-0.2,0.2-0.2,0.3-0.2s0.3,0.1,0.4,0.1h0.1
				c0.2-0.2,0.4,0,0.4,0c-0.1,0-0.2,0.1-0.2,0.1c0.1,0.1,0,0.4-0.1,0.4c-0.1,0.2,0.2,0.5,0.2,0.5c-0.2,0.1-0.4,0-0.4,0
				c0,0.4,0.7,0.5,0.7,0.5c-0.1,0.2-0.6,0.2-0.6,0.2c-0.1,0-0.1,0.1,0,0.2c0.2,0.1,0.5,0.2,0.6,0.4h0.6c0-0.1,0-0.2,0-0.3
				c0-0.2-0.2-0.4-0.4-0.7C39,28.7,39,28.7,39,28.6c0,0-0.3-0.5-0.1-0.7c0.2-0.3,0.5-0.2,0.5-0.2c0.2-0.2,0.5-0.1,0.6,0.2
				c0.1,0.4-0.2,0.4,0,1c-0.2,0-0.8-0.5-0.6-1c0,0-0.1,0-0.2,0c-0.1,0-0.2,0-0.2,0.1c-0.1,0.1,0,0.4,0.1,0.5c0,0.1,0.1,0.1,0.1,0.2
				c0.2,0.2,0.4,0.5,0.4,0.7c0,0.1,0,0.2,0,0.3h0.6v-3.1H38h-2.5h-0.1c0-0.1,0-0.2,0-0.4C35.4,25,35,24.6,34.7,24.5 M35.2,34
				c0,0.3,0,0.6,0.1,0.9h2.9c-0.3-0.4-0.4-0.9-0.4-1.4v-0.4h-2.6V34 M36.2,37.1c0.4,0.5,0.8,1,1.4,1.3v3.5h5.7v-2.7
				c-0.6,0.3-1.3,0.4-2,0.4c-1,0-1.9-0.3-2.7-0.7c0.6,0.2,1.2,0.4,1.9,0.4V37L36.2,37.1 M44.8,43.2c0-0.4-0.4-0.7-1.1-1h-6.5
				c-0.7,0.2-1.1,0.6-1.1,1v0.1L44.8,43.2C44.8,43.3,44.8,43.2,44.8,43.2 M46,33.1h-2.6v0.4c0,0.3,0,0.5-0.1,0.7c0.2,0,0.4,0,0.5,0
				c0,0,0.4,0,0.6,0c0.1,0,0.2,0,0.3,0c0.2,0,0.5-0.2,0.6-0.3c0,0,0.1-0.1,0-0.1v-0.1c-0.1,0-0.3,0-0.5,0.1s-0.5,0.2-0.6,0.1
				c-0.1,0-0.1-0.1,0-0.3c0,0,0-0.2,0.3-0.2c0.1,0,0.1,0.1,0,0.2c-0.1,0-0.2,0.1-0.3,0.1c0,0.1,0,0.1,0,0.1s0.2,0.1,0.5-0.1
				c0.2-0.1,0.4-0.2,0.6-0.1c0.1,0,0.1,0.1,0.1,0.1c0,0.1-0.1,0.2-0.1,0.2c-0.1,0.2-0.4,0.3-0.6,0.3c0.1,0.1,0.1,0.1,0.1,0.1
				s0,0.1,0,0.2c0,0.3,0.4,0.1,0.4,0.1c0,0.2-0.1,0.5-0.1,0.6s-0.2,0.1-0.3,0.1c-0.1,0,0-0.1,0-0.1H45l0.1-0.3
				c-0.4,0.1-0.6-0.3-0.6-0.3s-0.2,0.4-0.7,0.7c-0.1,0.1-0.3,0-0.3,0c-0.1-0.1,0.1-0.1,0.1-0.1c0.2-0.1,0.6-0.6,0.6-0.6
				s0.1-0.2-0.4,0.1c-0.4,0.2-0.6,0.2-0.8,0.2l0,0c-0.2,0.4-0.6,0.7-1,1c-0.4,0.2-0.8,0.4-1.3,0.4v3.1c1.1,0,2.1-0.4,3-1l0,0
				c1.4-1,2.3-2.6,2.3-4.4V33.1z M46,26.6h-5.2v3.1h1.5c0,0,0,0,0.1-0.1c-0.1,0-0.2-0.1-0.3-0.2c0,0,0.3,0,0.5-0.2
				c0,0,0-0.1-0.1-0.1c-0.4-0.3-0.9-0.8-0.9-0.8c-0.3,0-0.4-0.2-0.4-0.2c0.1,0,0.3,0,0.3-0.1s-0.3-0.2-0.3-0.2c0.1-0.1,0.3,0,0.3,0
				l-0.2-0.3c0.1,0,0.3,0.2,0.3,0.2c0-0.1,0-0.3,0-0.3c0.3,0.2,0.2,0.6,0.2,0.6l0.7,0.5c0.2,0.1,0.4,0.2,0.5-0.1
				c0,0-0.2-0.1-0.3-0.2c0,0,0.1,0,0.3-0.1s0-0.5,0.2-0.5l0.8,0.2c0,0,0,0.4-0.1,0.5c0,0,0,0.3,0.2,0.3h-0.3v0.1
				c0,0.2,0.2,0.5,0.3,0.5c0.3,0.1,0.8,0.5,0.8,0.5c0.1,0,0.3,0,0.4-0.1s0.1-0.2,0-0.3c0-0.2-0.2-0.4-0.4-0.7
				c-0.1-0.1-0.1-0.1-0.1-0.2c0,0-0.3-0.5-0.1-0.7c0.2-0.3,0.5-0.2,0.5-0.2c0.2-0.2,0.5-0.1,0.6,0.2c0.1,0.4-0.2,0.4,0,1
				c-0.2,0-0.8-0.5-0.6-1c0,0-0.1,0-0.2,0s-0.2,0-0.2,0.1c-0.1,0.1,0,0.4,0.1,0.5c0,0,0.1,0.1,0.1,0.2c0.2,0.2,0.4,0.5,0.4,0.7
				s0,0.4-0.1,0.5C45.1,30,44.9,30,44.8,30c0,0.1,0,0.1,0.1,0.2c0.1,0.1,0.2,0.2,0.2,0.2c-0.2,0.2-0.2,0.4,0,0.5
				c0.1,0.1,0.3,0,0.3,0c0.1,0.8-1,1.3-1,1.3c0,0.1,0.1,0,0.1,0.1c0.1,0.2-0.1,0.3-0.1,0.3c0-0.1,0-0.3-0.1-0.3s-0.2,0.3-0.2,0.3
				c-0.1-0.1,0.1-0.3,0.1-0.3c-0.1,0-0.3,0.3-0.3,0.3c-0.1-0.1,0.1-0.3,0.1-0.3c-0.1,0-0.3,0.2-0.3,0.2c0-0.4,0.3-0.4,0.5-0.4
				c0.6,0,0.5-0.7,0.5-0.7c-0.3,0.3-0.5,0.2-0.5,0.2c0.2-0.1,0.2-0.2,0.2-0.4c-0.1-0.6-0.1-0.6,0-0.7c0-0.1-0.1,0-0.1,0
				c-0.1,0.3-0.6,0.7-0.6,0.7c0.1,0,0.3,0.1,0.3,0.1c0,0.1-0.1,0.2-0.3,0.3v1.5H46V26.6z"/>
		</g>
	</g>
</g>
</svg>
