<?xml version="1.0" encoding="UTF-8"?>
<svg id="uuid-1103f658-e3e0-460e-9e28-72bd80b140f1" data-name="Layer 1" xmlns="http://www.w3.org/2000/svg" viewBox="0 0 401.143 530.609">
  <defs>
    <style>
      .uuid-3c5bbd86-8696-4631-9eb6-e06b95d5aa3b {
        fill: #fff;
        stroke-width: 0px;
      }
    </style>
  </defs>
  <path class="uuid-3c5bbd86-8696-4631-9eb6-e06b95d5aa3b" d="m391.578,488.45c-4.787-8.382-82.352-144.009-89.505-156.424,26.38-20.524,45.951-45.797,58.337-76.326,12.401-30.564,16.262-62.329,11.488-95.009-4.777-32.697-17.511-62.06-38.012-87.953C277.242,1.197,177.592-17.522,98.172,28.351,20.009,73.497-13.593,169.317,19.475,253.259c16.715,42.429,45.168,74.849,85.564,95.925,49.586,25.871,100.919,27.585,153.965,7.679.543,1.421.785,2.426,1.277,3.289,11.157,19.547,76.372,133.746,87.534,153.29,6.901,12.084,22.291,16.286,34.376,9.386h0c12.085-6.901,16.288-22.293,9.387-34.378Zm-237.949-168.136c-73.807-20.301-117.081-96.522-96.763-170.437,20.194-73.467,96.524-116.792,170.144-96.573,73.603,20.214,117.004,96.354,96.877,169.953-20.205,73.883-96.464,117.355-170.257,97.058Z"/>
</svg>