<svg id="Layer_1" data-name="Layer 1" xmlns="http://www.w3.org/2000/svg" xmlns:xlink="http://www.w3.org/1999/xlink" viewBox="0 0 360 216">
  <defs>
    <style>
      .cls-1, .cls-2, .cls-3, .cls-6 {
        fill: none;
      }

      .cls-1 {
        clip-rule: evenodd;
      }

      .cls-2, .cls-5, .cls-7, .cls-8, .cls-9 {
        fill-rule: evenodd;
      }

      .cls-4 {
        clip-path: url(#clip-path);
      }

      .cls-5 {
        fill: #00b0f0;
      }

      .cls-6 {
        stroke: #fff;
        stroke-linejoin: round;
        stroke-width: 1.5px;
      }

      .cls-7 {
        fill: #e70777;
      }

      .cls-8 {
        fill: #a5a5a5;
      }

      .cls-9 {
        fill: #7030a0;
      }

      .cls-10 {
        clip-path: url(#clip-path-7);
      }

      .cls-11 {
        font-size: 15.96px;
        fill: #595959;
        font-family: Calibri;
      }

      .cls-12 {
        letter-spacing: 0em;
      }

      .cls-13 {
        letter-spacing: 0.01em;
      }

      .cls-14 {
        letter-spacing: 0em;
      }

      .cls-15 {
        letter-spacing: 0em;
      }

      .cls-16 {
        letter-spacing: 0em;
      }

      .cls-17 {
        letter-spacing: 0em;
      }

      .cls-18 {
        letter-spacing: 0em;
      }

      .cls-19 {
        letter-spacing: 0em;
      }

      .cls-20 {
        letter-spacing: 0em;
      }

      .cls-21 {
        letter-spacing: 0.01em;
      }

      .cls-22 {
        letter-spacing: 0.01em;
      }

      .cls-23 {
        letter-spacing: 0em;
      }

      .cls-24 {
        letter-spacing: 0em;
      }

      .cls-25 {
        letter-spacing: 0em;
      }

      .cls-26 {
        letter-spacing: 0em;
      }

      .cls-27 {
        letter-spacing: 0em;
      }
    </style>
    <clipPath id="clip-path">
      <polygon class="cls-1" points="-0.35 215.7 359.65 215.7 359.65 -0.3 -0.35 -0.3 -0.35 215.7 -0.35 215.7"/>
    </clipPath>
    <clipPath id="clip-path-7">
      <rect class="cls-3" x="-0.35" y="-0.3" width="360" height="216"/>
    </clipPath>
  </defs>
  <g>
    <g class="cls-4">
      <path class="cls-5" d="M118,10.89a95.07,95.07,0,0,1,67.24,27.86L118,106V10.89Z"/>
      <path class="cls-6" d="M118,10.89a95.07,95.07,0,0,1,67.24,27.86L118,106V10.89Z"/>
    </g>
    <g class="cls-4">
      <path class="cls-7" d="M186.4,40.5a95.1,95.1,0,0,1,0,134.49l-67.25-67.24L186.4,40.5Z"/>
      <path class="cls-6" d="M186.4,40.5a95.1,95.1,0,0,1,0,134.49l-67.25-67.24L186.4,40.5Z"/>
    </g>
    <g class="cls-4">
      <path class="cls-8" d="M183.15,176.34A95.1,95.1,0,0,1,48.66,41.85l67.25,67.24,67.24,67.25Z"/>
      <path class="cls-6" d="M183.15,176.34A95.1,95.1,0,0,1,48.66,41.85l67.25,67.24,67.24,67.25Z"/>
    </g>
    <g class="cls-4">
      <path class="cls-9" d="M49.28,38.75a95.07,95.07,0,0,1,67.24-27.86V106L49.28,38.75Z"/>
      <path class="cls-6" d="M49.28,38.75a95.07,95.07,0,0,1,67.24-27.86V106L49.28,38.75Z"/>
    </g>
    <g class="cls-4">
      <polygon class="cls-5" points="241.51 26.64 250.27 26.64 250.27 35.52 241.51 35.52 241.51 26.64 241.51 26.64"/>
      <polygon class="cls-6" points="241.51 26.64 250.27 26.64 250.27 35.52 241.51 35.52 241.51 26.64 241.51 26.64"/>
    </g>
    <g class="cls-4">
      <g class="cls-10">
        <text class="cls-11" transform="translate(254.31 35.67)"><tspan class="cls-12">c</tspan><tspan class="cls-13" x="6.73" y="0">o</tspan><tspan class="cls-14" x="15.25" y="0">o</tspan><tspan class="cls-15" x="23.65" y="0">l</tspan><tspan x="27.36" y="0" xml:space="preserve"> d</tspan><tspan class="cls-16" x="39.35" y="0">a</tspan><tspan class="cls-17" x="47.03" y="0">t</tspan><tspan x="52.31" y="0">a</tspan></text>
      </g>
    </g>
    <g class="cls-4">
      <polygon class="cls-7" points="241.51 71.4 250.27 71.4 250.27 80.16 241.51 80.16 241.51 71.4 241.51 71.4"/>
      <polygon class="cls-6" points="241.51 71.4 250.27 71.4 250.27 80.16 241.51 80.16 241.51 71.4 241.51 71.4"/>
    </g>
    <g class="cls-4">
      <g class="cls-10">
        <text class="cls-11" transform="translate(254.31 80.34)">h<tspan class="cls-18" x="8.38" y="0">o</tspan><tspan class="cls-19" x="16.79" y="0">t</tspan><tspan x="22.18" y="0" xml:space="preserve"> d</tspan><tspan class="cls-16" x="34.17" y="0">a</tspan><tspan class="cls-19" x="41.85" y="0">t</tspan><tspan class="cls-20" x="47.24" y="0">a</tspan></text>
      </g>
    </g>
    <g class="cls-4">
      <polygon class="cls-8" points="241.51 116.04 250.27 116.04 250.27 124.8 241.51 124.8 241.51 116.04 241.51 116.04"/>
      <polygon class="cls-6" points="241.51 116.04 250.27 116.04 250.27 124.8 241.51 124.8 241.51 116.04 241.51 116.04"/>
    </g>
    <g class="cls-4">
      <g class="cls-10">
        <text class="cls-11" transform="translate(254.31 125)"><tspan class="cls-16">a</tspan><tspan x="7.68" y="0">w</tspan><tspan class="cls-21" x="19.09" y="0">e</tspan><tspan x="27.12" y="0">s</tspan><tspan class="cls-14" x="33.36" y="0">o</tspan><tspan class="cls-22" x="41.76" y="0">m</tspan><tspan class="cls-14" x="54.59" y="0">e</tspan><tspan class="cls-23" x="62.52" y="0" xml:space="preserve"> d</tspan><tspan class="cls-16" x="74.51" y="0">a</tspan><tspan class="cls-19" x="82.19" y="0">t</tspan><tspan class="cls-20" x="87.58" y="0">a</tspan></text>
      </g>
    </g>
    <g class="cls-4">
      <polygon class="cls-9" points="241.51 160.68 250.27 160.68 250.27 169.44 241.51 169.44 241.51 160.68 241.51 160.68"/>
      <polygon class="cls-6" points="241.51 160.68 250.27 160.68 250.27 169.44 241.51 169.44 241.51 160.68 241.51 160.68"/>
    </g>
    <g class="cls-4">
      <g class="cls-10">
        <text class="cls-11" transform="translate(254.31 169.67)"><tspan class="cls-24">D</tspan><tspan class="cls-16" x="9.83" y="0">a</tspan><tspan class="cls-25" x="17.51" y="0">t</tspan><tspan x="22.91" y="0">a</tspan></text>
      </g>
    </g>
    <g class="cls-4">
      <g class="cls-10">
        <text class="cls-11" transform="translate(254.31 189.2)">bu<tspan class="cls-17" x="16.77" y="0">tt</tspan><tspan class="cls-21" x="26.83" y="0">e</tspan><tspan class="cls-26" x="34.87" y="0">rf</tspan><tspan class="cls-25" x="40.4" y="0">l</tspan><tspan class="cls-27" x="48.89" y="0">i</tspan><tspan class="cls-12" x="52.51" y="0">e</tspan><tspan x="60.43" y="0">s</tspan></text>
      </g>
    </g>
  </g>
</svg>
